<svg xmlns="http://www.w3.org/2000/svg" viewBox="0 0 256 256" xmlns:xlink="http://www.w3.org/1999/xlink" preserveAspectRatio="xMidYMid"><defs><circle id="a" cx="128" cy="128" r="128"/></defs><mask id="b" fill="#fff"><use xlink:href="#a"/></mask><use fill="#B3BBC6" xlink:href="#a"/><path fill="#666C76" d="M38.7 176.7l107.4 80L410 273 208 86v42.6l-19-13.5-35-29-21 34-29.3-24.5-51.7-3.3-13 84.5z" mask="url(#b)"/><path fill="#FFF" d="M118.8 131.2c0-27.2-16.6-45.6-48.4-45.6H39V177h32c31 0 47.8-18.7 47.8-45.8zm-22.7 0c0 19.7-10 28-26 28h-8.3v-56H70c15.4 0 26 9 26 28zM209 177V85.6h-21v51l-33.7-51h-22V177h21v-54.7l36 54.6H209z"/></svg>