<svg width="2500" height="2500" viewBox="0 0 256 256" xmlns="http://www.w3.org/2000/svg" preserveAspectRatio="xMidYMid"><path d="M128 8.5c66 0 119.4 53.4 119.4 119.3S194 247.2 128 247.2 8.6 193.8 8.6 128 62 8.4 128 8.4z" fill="#E74D89"/><path d="M128 255.7C57.4 255.7 0 198.4 0 128 0 57.2 57.4 0 128 0s128 57.3 128 127.8-57.4 128-128 128zm108-110.4c-3.8-1.2-34-10-68.2-4.7 14.3 39.2 20 71.2 21.2 77.8 24.6-16.5 42-42.7 47-73zm-65.3 83.2c-1.6-9.6-8-43-23.3-82.8l-.7.2C85 167.3 63 210 61 214c18.4 14.5 41.7 23 67 23 15 .2 29.6-3 42.7-8.5zM46.7 201c2.6-4.2 32.6-53.8 89-72 1.4-.6 3-1 4.3-1.4-2.7-6.2-5.7-12.4-9-18.5-54.5 16.4-107.5 15.7-112.3 15.6v3.3c0 28 10.6 53.6 28 73zM21 105.6c5 0 50 .3 101-13.3C104 60 84.5 33 81.7 29.3 51 43.5 28 71.7 21 105.5zm81.4-83.8c3 4 23 31 40.8 64 39-14.7 55.3-36.7 57.3-39.5-19.3-17-44.7-27.5-72.5-27.5-8.8 0-17.4 1-25.6 3zm110.2 37c-2.3 3.2-20.6 26.7-61 43.2 2.5 5.2 5 10.5 7.3 15.8.7 2 1.5 3.8 2.3 5.6 36.4-4.6 72.5 2.8 76 3.5-.2-25.8-9.4-49.5-24.7-68z" fill="#B2215A"/></svg>
