<svg xmlns="http://www.w3.org/2000/svg" viewBox="0 0 300 300"><path fill="#CBCBCB" d="M283.7 42H15.2V13.3C15.2 6 21.2 0 28.6 0h241.7c7.4 0 13.4 6 13.4 13.4V42z"/><linearGradient id="a" gradientUnits="userSpaceOnUse" x1="78.4" y1="13.5" x2="110.9" y2="45.9"><stop offset="0"/><stop offset=".1" stop-color="#1D1D1D" stop-opacity=".9"/><stop offset=".4" stop-color="#686868" stop-opacity=".6"/><stop offset=".9" stop-color="#DEDEDE" stop-opacity=".1"/><stop offset="1" stop-color="#FFF" stop-opacity="0"/></linearGradient><path opacity=".3" fill="url(#a)" d="M119.5 37.3l-15.7 15s-24-20.4-26-22.3c-2-2-3.3-4.8-3.3-8 0-6 5-11 11-11 3 0 5.6 1 7.6 3l26.5 23.3z"/><circle fill="#EFEFEF" cx="85.5" cy="22.1" r="11.1"/><path fill="#366EF1" d="M273.2 300h-248c-11 0-20-9.5-19-20.6l8.8-109h270l7.2 109.3c.7 11-8 20.3-19 20.3z"/><linearGradient id="b" gradientUnits="userSpaceOnUse" x1="63.5" y1="274" x2="284.9" y2="170.3"><stop offset="0" stop-color="#2549C2"/><stop offset="0" stop-color="#2448BF"/><stop offset=".2" stop-color="#1A3286" stop-opacity=".8"/><stop offset=".4" stop-color="#102056" stop-opacity=".6"/><stop offset=".6" stop-color="#091231" stop-opacity=".4"/><stop offset=".7" stop-color="#040816" stop-opacity=".3"/><stop offset=".9" stop-color="#010206" stop-opacity=".1"/><stop offset="1" stop-opacity="0"/></linearGradient><path opacity=".3" fill="url(#b)" d="M273.2 300H142.8L15 170.5h270l7.2 109.2c.7 11-8 20.3-19 20.3z"/><circle fill="#EFEFEF" cx="212.2" cy="22.1" r="11.1"/><linearGradient id="c" gradientUnits="userSpaceOnUse" x1="205.1" y1="13.5" x2="237.5" y2="45.9"><stop offset="0"/><stop offset=".1" stop-color="#1D1D1D" stop-opacity=".9"/><stop offset=".4" stop-color="#686868" stop-opacity=".6"/><stop offset=".9" stop-color="#DEDEDE" stop-opacity=".1"/><stop offset="1" stop-color="#FFF" stop-opacity="0"/></linearGradient><path opacity=".3" fill="url(#c)" d="M246 37.3l-15.6 15s-24-20.4-26-22.3c-2-2-3.3-4.8-3.3-8 0-6 5-11 11.2-11 3 0 5.5 1 7.5 3L246 37.2z"/><circle fill="#EFEFEF" cx="212.2" cy="22.1" r="11.1"/><path fill="#264AC2" d="M19.7 42h260.6c11.6 0 20.5 10 19 21.5l-14.3 107H15L.7 63.5C-.8 52 8 42 19.7 42z"/><g><path fill="#E8E8E8" d="M90 177h14.2c7.8 0 13.5 1.5 17 5 3.7 3.7 5.5 9.2 5.5 17 0 7.5-2 13-6 17-4.2 4-9.8 5.8-17 5.8-7 0-12.5-2-16.5-6s-6-8.8-6-15.8H65l-.3.7c-.3 10.5 3.3 19 10.8 25 7.5 6.2 17 9.4 28.3 9.4 11.6 0 21-3 28.6-9.7 7.5-6.5 11.2-15.5 11.2-26.8 0-6.5-1.6-12.4-4.7-17.6-2.5-4.2-6.3-7.8-11.4-9.8H90v5.8zM196 171h17v65h-17z"/><g fill="#B4B6CF"><path d="M137 157.5c3-5 4.7-10.2 4.7-15.4 0-11.3-3.4-20-10.3-26.2-7-6-16-9.2-27.6-9.2-11.5 0-20.8 3.3-28 10-7 6.5-10.4 14.5-10 24v.4H82c0-6 2-11.5 6-15.4 4-4 9.2-5.8 15.8-5.8 7 0 12 2 15.7 5.6 3.5 3.7 5.3 9 5.3 16.3 0 6.7-1.6 12-4.7 15.7-3 3.7-8.3 5.6-15.8 5.6H90v8h37.6c-1.4-1-3-1.3-4.6-1.8 6.2-2.7 11-6.6 14-11.7zM213 104.6l-49 18v16l32-12V171h17"/></g></g></svg>
