<svg xmlns="http://www.w3.org/2000/svg" viewBox="0 0 256 249" preserveAspectRatio="xMinYMin meet"><g fill="#fff"><path d="M127.5 0C57 0 0 57 0 127.5c0 56.3 36.5 104 87.2 121 6.4 1.2 8.7-2.8 8.7-6l-.5-24c-35.4 7.8-43-15-43-15-5.7-14.7-14-18.6-14-18.6-11.6-8 .8-8 .8-8 12.8 1 19.5 13 19.5 13 11.3 19.6 30 14 37 10.7 1.2-8.3 4.5-14 8-17-28.2-3.4-58-14.3-58-63.2 0-14 5-25.2 13-34.2-1-3.2-5.5-16.2 1.4-33.7 0 0 10.7-3.5 35 13 10.3-3 21.2-4.3 32-4.3s21.8 1.4 32 4.2c24.3-16.5 35-13 35-13 7 17.4 2.5 30.4 1.2 33.6 8.2 9 13 20.4 13 34.3 0 49-29.7 59.8-58 63 4.5 4 8.6 11.7 8.6 23.6l-.2 35c0 3.3 2.4 7.2 9 6 50.5-17 87-64.7 87-121C255 57 198 0 127.5 0"/><path d="M47.8 181.6c-.3.7-1.3 1-2.2.4-1-.4-1.5-1.3-1.2-2 .3-.5 1.3-.7 2.2-.3 1 .4 1.5 1.3 1.2 2M54 187c-.6.6-1.8.3-2.6-.6-.8-.8-1-2-.3-2.6 1-.6 2-.3 3 .6.7 1 1 2 .2 2.6m4.4 7.2c-.8.5-2 0-2.8-1-.8-1.2-.8-2.6 0-3 .8-.7 2-.2 2.8 1 .8 1 .8 2.4 0 3m7.3 8.3c-.8.8-2.3.5-3.4-.5-1-1-1.4-2.5-.7-3.3.6-.8 2-.6 3.2.4 1 1 1.4 2.7.6 3.5m9.4 2.8c-.3 1-1.7 1.4-3.2 1-1.4-.4-2.4-1.6-2-2.6.2-1 1.7-1.6 3-1 1.6.3 2.5 1.5 2.2 2.5m10.7 1.3c0 1-1.3 2-2.8 2-1.5 0-2.7-1-2.8-2 0-1 1.2-2 2.8-2 1.5 0 2.7 1 2.7 2m10.4-.4c.2 1-.8 2-2.3 2.3-1.6.3-3-.3-3.2-1.4-.2-1 1-2 2.4-2.4 1.6-.4 3 .2 3 1.3"/></g></svg>