<svg xmlns="http://www.w3.org/2000/svg" shape-rendering="geometricPrecision" text-rendering="geometricPrecision" image-rendering="optimizeQuality" viewBox="7.1 7.1 1277.1 924"><path fill="none" d="M1138.7 931h.3m0 0h-.3"/><path fill="#e75a4d" d="M1179.4 7C1237 7 1284 54.3 1284 111.8V142l-145.3 104-495 340.8L149 242.4V931h-37.3C54.2 931 7 884 7 826.6v-715C7 54.3 54.3 7 111.8 7l532 394.6L1179.5 7z"/><linearGradient id="a" x1="1959.7" x2="26066.2" y1="737.1" y2="737.1" gradientUnits="userSpaceOnUse" gradientTransform="matrix(.0283 0 0 -.0283 248.36 225.244)"><stop offset="0" stop-color="#f8f6ef"/><stop offset="1" stop-color="#e7e4d6"/></linearGradient><path fill="url(#a)" d="M111.7 7l532 394.6L1179.5 7z"/><path fill="#e7e4d7" d="M149 242.4V931h989.7V246l-495 340.8z"/><path fill="#b8b7ae" d="M149 931l494.8-344-2.2-1.6-492.6 338z"/><path fill="#b7b6ad" d="M1138.7 246l.3 685-495.2-344z"/><path fill="#b2392f" d="M1284 142l.2 684.6c-2.5 76-35.4 103.2-145.2 104.5l-.3-685L1284 142z"/><linearGradient id="b" x1="1959.7" x2="26066.2" y1="737.1" y2="737.1" gradientUnits="userSpaceOnUse" gradientTransform="matrix(.0283 0 0 -.0283 248.36 225.244)"><stop offset="0" stop-color="#f8f6ef"/><stop offset="1" stop-color="#e7e4d6"/></linearGradient><path fill="url(#b)" d="M111.7 7l532 394.6L1179.5 7z"/><linearGradient id="c" x1="1959.7" x2="26066.2" y1="737.1" y2="737.1" gradientUnits="userSpaceOnUse" gradientTransform="matrix(.0283 0 0 -.0283 248.36 225.244)"><stop offset="0" stop-color="#f8f6ef"/><stop offset="1" stop-color="#e7e4d6"/></linearGradient><path fill="url(#c)" d="M111.7 7l532 394.6L1179.5 7z"/><linearGradient id="d" x1="1959.7" x2="26066.2" y1="737.1" y2="737.1" gradientUnits="userSpaceOnUse" gradientTransform="matrix(.0283 0 0 -.0283 248.36 225.244)"><stop offset="0" stop-color="#f8f6ef"/><stop offset="1" stop-color="#e7e4d6"/></linearGradient><path fill="url(#d)" d="M111.7 7l532 394.6L1179.5 7z"/><linearGradient id="e" x1="1959.7" x2="26066.2" y1="737.1" y2="737.1" gradientUnits="userSpaceOnUse" gradientTransform="matrix(.0283 0 0 -.0283 248.36 225.244)"><stop offset="0" stop-color="#f8f6ef"/><stop offset="1" stop-color="#e7e4d6"/></linearGradient><path fill="url(#e)" d="M111.7 7l532 394.6L1179.5 7z"/><linearGradient id="f" x1="1959.7" x2="26066.2" y1="737.1" y2="737.1" gradientUnits="userSpaceOnUse" gradientTransform="matrix(.0283 0 0 -.0283 248.36 225.244)"><stop offset="0" stop-color="#f8f6ef"/><stop offset="1" stop-color="#e7e4d6"/></linearGradient><path fill="url(#f)" d="M111.7 7l532 394.6L1179.5 7z"/><linearGradient id="g" x1="1959.7" x2="26066.2" y1="737.1" y2="737.1" gradientUnits="userSpaceOnUse" gradientTransform="matrix(.0283 0 0 -.0283 248.36 225.244)"><stop offset="0" stop-color="#f8f6ef"/><stop offset="1" stop-color="#e7e4d6"/></linearGradient><path fill="url(#g)" d="M111.7 7l532 394.6L1179.5 7z"/><linearGradient id="h" x1="1959.7" x2="26066.2" y1="737.1" y2="737.1" gradientUnits="userSpaceOnUse" gradientTransform="matrix(.0283 0 0 -.0283 248.36 225.244)"><stop offset="0" stop-color="#f8f6ef"/><stop offset="1" stop-color="#e7e4d6"/></linearGradient><path fill="url(#h)" d="M111.7 7l532 394.6L1179.5 7z"/><path fill="#f7f5ed" d="M111.7 7l532 394.6L1179.5 7z"/></svg>