<svg shape-rendering="geometricPrecision" text-rendering="geometricPrecision" image-rendering="optimizeQuality" xmlns="http://www.w3.org/2000/svg" width="2500" height="1809" viewBox="7.086 7.087 1277.149 924.008"><path fill="none" d="M1138.7 931h.3m0 0h-.3"/><path d="M1179.4 7C1237 7 1284 54.3 1284 111.8V142l-145.3 104-495 340.8L149 242.4V931h-37.3C54.2 931 7 884 7 826.6V111.7C7 54.2 54.3 7 111.8 7l532 394.6L1179.5 7z" fill="#e75a4d"/><linearGradient id="a" gradientUnits="userSpaceOnUse" x1="1959.7" y1="737.1" x2="26066.2" y2="737.1" gradientTransform="matrix(.0283 0 0 -.0283 248.36 225.244)"><stop offset="0" stop-color="#f8f6ef"/><stop offset="1" stop-color="#e7e4d6"/></linearGradient><path fill="url(#a)" d="M111.7 7l532 394.6L1179.5 7z"/><path fill="#e7e4d7" d="M149 242.4V931h989.7V246l-495 340.8z"/><path fill="#b8b7ae" d="M149 931L643.8 587l-2.2-1.6L149 923.5z"/><path fill="#b7b6ad" d="M1138.7 246l.3 685L643.8 587z"/><path d="M1284 142l.2 684.6c-2.5 76-35.4 103.2-145.2 104.5l-.3-685.2L1284 142z" fill="#b2392f"/><linearGradient id="b" gradientUnits="userSpaceOnUse" x1="1959.7" y1="737.1" x2="26066.2" y2="737.1" gradientTransform="matrix(.0283 0 0 -.0283 248.36 225.244)"><stop offset="0" stop-color="#f8f6ef"/><stop offset="1" stop-color="#e7e4d6"/></linearGradient><path fill="url(#b)" d="M111.7 7l532 394.6L1179.5 7z"/><linearGradient id="c" gradientUnits="userSpaceOnUse" x1="1959.7" y1="737.1" x2="26066.2" y2="737.1" gradientTransform="matrix(.0283 0 0 -.0283 248.36 225.244)"><stop offset="0" stop-color="#f8f6ef"/><stop offset="1" stop-color="#e7e4d6"/></linearGradient><path fill="url(#c)" d="M111.7 7l532 394.6L1179.5 7z"/><linearGradient id="d" gradientUnits="userSpaceOnUse" x1="1959.7" y1="737.1" x2="26066.2" y2="737.1" gradientTransform="matrix(.0283 0 0 -.0283 248.36 225.244)"><stop offset="0" stop-color="#f8f6ef"/><stop offset="1" stop-color="#e7e4d6"/></linearGradient><path fill="url(#d)" d="M111.7 7l532 394.6L1179.5 7z"/><linearGradient id="e" gradientUnits="userSpaceOnUse" x1="1959.7" y1="737.1" x2="26066.2" y2="737.1" gradientTransform="matrix(.0283 0 0 -.0283 248.36 225.244)"><stop offset="0" stop-color="#f8f6ef"/><stop offset="1" stop-color="#e7e4d6"/></linearGradient><path fill="url(#e)" d="M111.7 7l532 394.6L1179.5 7z"/><linearGradient id="f" gradientUnits="userSpaceOnUse" x1="1959.7" y1="737.1" x2="26066.2" y2="737.1" gradientTransform="matrix(.0283 0 0 -.0283 248.36 225.244)"><stop offset="0" stop-color="#f8f6ef"/><stop offset="1" stop-color="#e7e4d6"/></linearGradient><path fill="url(#f)" d="M111.7 7l532 394.6L1179.5 7z"/><linearGradient id="g" gradientUnits="userSpaceOnUse" x1="1959.7" y1="737.1" x2="26066.2" y2="737.1" gradientTransform="matrix(.0283 0 0 -.0283 248.36 225.244)"><stop offset="0" stop-color="#f8f6ef"/><stop offset="1" stop-color="#e7e4d6"/></linearGradient><path fill="url(#g)" d="M111.7 7l532 394.6L1179.5 7z"/><linearGradient id="h" gradientUnits="userSpaceOnUse" x1="1959.7" y1="737.1" x2="26066.2" y2="737.1" gradientTransform="matrix(.0283 0 0 -.0283 248.36 225.244)"><stop offset="0" stop-color="#f8f6ef"/><stop offset="1" stop-color="#e7e4d6"/></linearGradient><path fill="url(#h)" d="M111.7 7l532 394.6L1179.5 7z"/><path fill="#f7f5ed" d="M111.7 7l532 394.6L1179.5 7z"/></svg>
