<svg xmlns="http://www.w3.org/2000/svg" width="2119" height="2500" viewBox="0 0 256 302" preserveAspectRatio="xMidYMid"><path fill="#27346A" d="M217.2 23.5C203.2 7.5 178 .8 145.8.8H52.3A13.4 13.4 0 0 0 39 12L0 259c-.6 5 3 9.4 8 9.4H66l14.5-92-.4 3c1-6.6 6.4-11.4 13-11.4h27.5c54 0 96-22 108.4-85.3l1-5.4c-1.7-1-1.7-1 0 0 3.5-23.4-.2-39.4-12.8-53.8"/><path fill="#27346A" d="M102.4 68.8a11.7 11.7 0 0 1 5-1H181c8.6 0 16.7.5 24 1.7a101.6 101.6 0 0 1 6.3 1 90 90 0 0 1 8.7 2.5c3.7 1.2 7 2.6 10.2 4.3 3.5-23.4-.2-39.4-12.8-53.8C203.2 7.5 178 .8 145.8.8H52.3C45.7.8 40 5.6 39 12L0 259c-.6 5 3 9.3 8 9.3H66l30-190.7a11.7 11.7 0 0 1 6.6-8.8z"/><path fill="#2790C3" d="M229 82.7C216.5 146 174.3 168 120.4 168H93c-6.6 0-12 4.8-13 11.3L61.7 293.6c-.7 4.3 2.6 8 7 8h48.6A11.7 11.7 0 0 0 129 292l.5-2.6 9-58.2.7-3.2a11.7 11.7 0 0 1 11.6-9.8h7.3c47.2 0 84-19.2 95-74.6 4.4-23 2-42.5-9.8-56-3.6-4.2-8-7.6-13.3-10.3l-1 5.4z"/><path fill="#1F264F" d="M217 72a90 90 0 0 0-6-1.4 110 110 0 0 0-6-1c-7.5-1.3-15.5-2-24.2-2h-73.3a11.6 11.6 0 0 0-5 1.2 11.7 11.7 0 0 0-6.6 8.8l-15.7 98.8-.4 3c1-6.6 6.4-11.4 13-11.4h27.5c54 0 96-22 108.4-85.3l1-5.4c-3.3-1.7-6.6-3-10.3-4.3a83.3 83.3 0 0 0-2.7-1"/></svg>
