<!-- <svg width="2500" height="2500" viewBox="0 0 256 256" xmlns="http://www.w3.org/2000/svg"><path d="M96 76.8v102.4h19.2v-32h29c19.4-.5 35-16.2 35-35.2 0-19.6-15.6-35.2-35-35.2H96zm48.5 51.2h-29.3V96h29.3c8.6 0 15.5 7.2 15.5 16s-7 16-15.5 16z" fill="#FFF" fill-rule="evenodd"/></svg> -->
<svg width="23" height="28" xmlns="http://www.w3.org/2000/svg"><path fill="#fff" d="m0.097617,0.0042l0,27.777776l5.208333,0l0,-8.680555l7.866753,0c5.262586,-0.135634 9.494357,-4.394531 9.494357,-9.54861c0,-5.31684 -4.231771,-9.54861 -9.494357,-9.54861l-13.075086,0zm13.156466,13.888888l-7.948133,0l0,-8.680555l7.948133,0c2.332899,0 4.204644,1.953125 4.204644,4.340277s-1.898871,4.340277 -4.204644,4.340277z"/></svg>
