<svg xmlns:xlink="http://www.w3.org/1999/xlink" xmlns="http://www.w3.org/2000/svg" width="1024" height="1024"><script/><defs><clipPath id="clip_1"><use xlink:href="#artboard_1" clip-rule="evenodd"/></clipPath><path id="artboard_1" d="M0 0h1024v1024H0z"/></defs><g id="Simple-Logo-Light" clip-path="url(#clip_1)"><use xlink:href="#artboard_1" fill="#FFF" fill-opacity="0"/><g id="Group-Copy" transform="translate(70 21)" stroke="none"><path d="M105.302 154.943l7.522 714.549C52.651 877.014 7.522 846.927 7.522 786.755L0 192.55C0 4.511 172.996-40.618 278.298 34.597L812.33 342.982c75.216 52.651 90.259 150.431 52.651 218.125-7.521-52.651-30.086-82.737-75.216-112.823L188.039 109.813c-45.129-30.086-82.737-22.565-82.737 45.13z" id="Shape" fill="#24292E"/><path d="M0 376.079c45.13 15.043 90.259 7.521 127.867-15.043L744.636 0c37.608 52.651 30.087 105.302-15.043 135.388L210.604 436.251c-75.216 37.608-172.996 0-210.604-60.172z" transform="translate(60.172 531.021)" id="Shape" fill="#24292E"/><path d="M0 413.687l368.557-210.604L7.522 0 0 413.687z" transform="translate(240.69 282.81)" id="Shape" fill="#FFFFFF"/></g></g><style/></svg>
