<svg xmlns="http://www.w3.org/2000/svg" viewBox="6.4 6.4 347.3 487.3"><g transform="matrix(12.585 0 0 12.585 -584.344 -1.372)"><ellipse cx="65.2" cy="28.4" fill="#fff" stroke="#000" stroke-width="1.1" rx="4.4" ry="5.3"/><path fill="#fff" d="M58.3 39.3v-.6c0-1.4-1.3-2.5-3-2.5s-3 1-3 2.5v.6h6z"/><path fill="none" stroke="#000" stroke-width="1.1" d="M58.3 39.3v-.6c0-1.4-1.3-2.5-3-2.5s-3 1-3 2.5v.6h6z" stroke-linecap="round" stroke-linejoin="round"/><path fill="#fff" d="M69 39.3v-.6c0-1.4-1.3-2.5-3-2.5s-3 1-3 2.5v.6h6z"/><path fill="none" stroke="#000" stroke-width="1.1" d="M69 39.3v-.6c0-1.4-1.3-2.5-3-2.5s-3 1-3 2.5v.6h6z" stroke-linecap="round" stroke-linejoin="round"/><circle cx="49.7" cy="11.8" r="2.7" fill="#fff" stroke="#000" stroke-width="1.1"/><circle cx="71.8" cy="11.8" r="2.7" fill="#fff" stroke="#000" stroke-width="1.1"/><path fill="none" stroke="#000" stroke-width="1.1" d="M68.2 2.4L62.8 1l-2 6.4" stroke-linecap="round" stroke-linejoin="round"/><ellipse cx="56.1" cy="28.4" fill="#fff" stroke="#000" stroke-width="1.1" rx="4.4" ry="5.3"/><circle cx="70.4" cy="2.8" r="2.1" fill="#fff" stroke="#000" stroke-width="1.1"/><path fill="#fff" d="M59.2 39.3h3C64.8 38 66.8 33 66.8 27c0-7-2.7-12.6-6-12.6-3.5 0-6.2 5.6-6.2 12.6 0 6 2 11 4.6 12.3z"/><path fill="none" stroke="#000" stroke-width="1.1" d="M59.2 39.3h3C64.8 38 66.8 33 66.8 27c0-7-2.7-12.6-6-12.6-3.5 0-6.2 5.6-6.2 12.6 0 6 2 11 4.6 12.3z"/><ellipse cx="60.7" cy="15.6" fill="#fff" stroke="#000" stroke-width="1.1" rx="12.2" ry="8"/><path fill="none" stroke="#000" stroke-width="1.1" d="M57.5 39.3H64" stroke-linecap="round" stroke-linejoin="round"/><path fill="#ff4500" d="M56.4 12a2 2 0 0 0-2 2c0 1 1 2 2 2s2-1 2-2-1-2-2-2zm8.7 0a2 2 0 0 0-2 2c0 1 1 2 2 2a2 2 0 0 0 2-2c0-1-.7-2-2-2z"/><path fill="none" stroke="#000" stroke-width="1.1" d="M56.5 19.2c1 1 2.8 1.3 4.2 1.3m4.3-1.3c-1 1-2.8 1.3-4.3 1.3" stroke-linecap="round"/></g></svg>