<svg xmlns="http://www.w3.org/2000/svg" width="1782" height="2500" viewBox="6.371 6.372 347.263 487.256"><g transform="translate(-584.344 -1.372) scale(12.58495)"><ellipse cx="65.2" cy="28.4" rx="4.4" ry="5.3" fill="#fff" stroke="#000" stroke-width="1.1"/><path d="M58.3 39.3v-.6c0-1.4-1.3-2.5-3-2.5s-3 1-3 2.5v.6h6z" fill="#fff"/><path d="M58.3 39.3v-.6c0-1.4-1.3-2.5-3-2.5s-3 1-3 2.5v.6h6z" fill="none" stroke="#000" stroke-width="1.1" stroke-linecap="round" stroke-linejoin="round"/><path d="M69 39.3v-.6c0-1.4-1.3-2.5-3-2.5s-3 1-3 2.5v.6h6z" fill="#fff"/><path d="M69 39.3v-.6c0-1.4-1.3-2.5-3-2.5s-3 1-3 2.5v.6h6z" fill="none" stroke="#000" stroke-width="1.1" stroke-linecap="round" stroke-linejoin="round"/><circle cx="49.7" cy="11.8" r="2.7" fill="#fff" stroke="#000" stroke-width="1.1"/><circle cx="71.8" cy="11.8" r="2.7" fill="#fff" stroke="#000" stroke-width="1.1"/><path d="M68.2 2.4L62.8 1l-2 6.4" fill="none" stroke="#000" stroke-width="1.1" stroke-linecap="round" stroke-linejoin="round"/><ellipse cx="56.1" cy="28.4" rx="4.4" ry="5.3" fill="#fff" stroke="#000" stroke-width="1.1"/><circle cx="70.4" cy="2.8" r="2.1" fill="#fff" stroke="#000" stroke-width="1.1"/><path d="M59.2 39.3h3C64.8 38 66.8 33 66.8 27c0-7-2.7-12.6-6-12.6-3.5 0-6.2 5.6-6.2 12.6 0 6 2 11 4.6 12.3z" fill="#fff"/><path d="M59.2 39.3h3C64.8 38 66.8 33 66.8 27c0-7-2.7-12.6-6-12.6-3.5 0-6.2 5.6-6.2 12.6 0 6 2 11 4.6 12.3z" fill="none" stroke="#000" stroke-width="1.1"/><ellipse cx="60.7" cy="15.6" rx="12.2" ry="8" fill="#fff" stroke="#000" stroke-width="1.1"/><path fill="none" stroke="#000" stroke-width="1.1" stroke-linecap="round" stroke-linejoin="round" d="M57.5 39.3H64"/><path d="M56.4 12a2 2 0 0 0-2 2c0 1 1 2 2 2s2-1 2-2-1-2-2-2zm8.7 0a2 2 0 0 0-2 2c0 1 1 2 2 2a2 2 0 0 0 2-2c0-1-.8-2-2-2z" fill="#ff4500"/><path d="M56.5 19.2c1 1 2.8 1.3 4.2 1.3m4.3-1.3c-1 1-2.8 1.3-4.3 1.3" fill="none" stroke="#000" stroke-width="1.1" stroke-linecap="round"/></g></svg>
