<svg xmlns="http://www.w3.org/2000/svg" xmlns:xlink="http://www.w3.org/1999/xlink" viewBox="0 0 218 218"><defs><clipPath id="b"><use xlink:href="#a"/></clipPath><path id="a" d="M159.8 110c0-16.7 4.4-31.6 13.3-44.6L195.6 43c-3-3.8-6-7.4-9.6-11-3-2.7-5.7-5.3-8.6-7.6L158 43.6c-13.8 10.7-30 16-48.5 16-18 0-33.8-5-47.6-15.2L41.4 24c-3 2.5-6 5.2-9 8-3.3 3.4-6.4 7-9.2 10.5l21 21C54 77 59 92.5 59 110c0 18-5 34-15.2 48l-19 19c2.3 3 5 5.8 7.7 8.7 3.4 3.4 7 6.6 10.7 9.5L62 176.5c14-10.2 29.8-15.3 47.7-15.3 18.5 0 34.7 5.4 48.6 16l17.6 17.7c2.8-2.2 5.4-4.6 8-7 .8-.8 1.6-1.5 2.3-2.4 2.8-3 5.5-6 8-9l-19-19C165 144 159.8 128 159.8 110"/></defs><symbol id="c" viewBox="-114.25 -98.617 228.55 197.233"><path d="M72.2 90.3l4.7-2.7 4.5 2.7v5.4L77 98.4 72 95.7v-5.4zM63 95.7L58 98.4l-4.6-2.7v-5.4l4.6-2.7 4.7 2.7v5.4l4.5 2.7 4.7-2.7M63 90.3l4.5-2.7 4.7 2.7M63 79.5V74l4.5-2.6 4.7 2.7v5.5l-4.7 2.7-4.6-2.6L58 82l-4.6-2.6M72.2 74l4.7-2.8 4.5 2.7v5.5L77 82.3 72 79.6m4.7 8v-5.4m-9.5 5.4v-5.4m14 13.5l4.7 2.7 4.6-2.7 4.7 2.7 4.6-2.7 4.8 2.7 4.6-2.7v-5.4l4.7-2.7v-5.4l-4.6-2.7V74l4.7-2.6V66l-4.6-2.7V58L114 55v-5.4l-4.6-2.6v-5.4L114 39v-5.3l-4.6-2.7v-5.4L114 23v-5.5l-4.6-2.7V9.4l4.7-2.7V1.3l-4.6-2.7v-5.4l4.7-2.7V-15l-4.6-2.5V-23l4.7-2.6V-31l-4.6-2.7V-39L114-42v-5.4l-4.6-2.7v-5.3L114-58v-5.4l-4.6-2.7v-5.5l4.7-2.7v-5.4l-4.6-2.6v-5.4l4.7-2.7v-5.4l-4.6-2.7-4.6 2.7-4.7-2.7-4.5 2.7-4.7-2.7-4.6 2.7-4.7-2.7-4.6 2.7-4.8-2.7-4.7 2.7-4.6-2.7-4.8 2.7-4.6-2.7-4.7 2.7-4.7-2.7-4.7 2.7-4.6-2.7-4.7 2.7-4.7-2.7-4.6 2.7-4.7-2.7-4.6 2.7L7-98.4l-4.6 2.7-4.7-2.7-4.6 2.7-4.6-2.7-4.6 2.7-4.7-2.7-4.5 2.7-4.7-2.7-4.6 2.7-4.7-2.7-4.7 2.7-4.6-2.7-4.7 2.7-4.6-2.7-4.8 2.7-4.6-2.7-4.7 2.7-4.7-2.7-4.7 2.7-4.7-2.7-4.7 2.7-4.7-2.7-4.6 2.7-4.7-2.7-4.6 2.7v5.4l-4.7 2.7v5.4l4.7 2.6v5.4l-4.7 2.7v5.4l4.7 2.6v5.4l-4.7 2.7v5.4l4.7 2.8v5.4L-114-39v5.3l4.7 2.7v5.4L-114-23v5.5l4.7 2.6v5.5l-4.7 2.7v5.4l4.7 2.7v5.4l-4.7 2.7v5.4l4.7 2.7V23l-4.7 2.6V31l4.7 2.7V39L-114 42v5.4l4.7 2.6v5.4L-114 58v5.3l4.7 2.7v5.4L-114 74v5.5l4.7 2.7v5.4l-4.7 2.7v5.4l4.7 2.7 4.6-2.7 4.7 2.7 4.6-2.7 4.7 2.7 4.6-2.7 4.6 2.7 4.7-2.7 4.6 2.7 4.6-2.7 4.6 2.7 4.7-2.7 4.5 2.7 4.7-2.7 4.6 2.7 4.7-2.7 4.7 2.7 4.6-2.7 4.7 2.7 4.6-2.7 4.8 2.7 4.6-2.7 4.7 2.7 4.7-2.7 4.7 2.7L7 95.7l4.7 2.7 4.6-2.7 4.7 2.7 4.6-2.7 4.7 2.7 4.7-2.7 4.6 2.7 4.7-2.7 4.6 2.7 4.6-2.7m-9.3 0v-5.4l4.6-2.7 4.6 2.7m-9.3-10.8V74l4.6-2.6 4.6 2.7v5.5L49 82.2l-4.7-2.7-4.7 2.7-4.6-2.7m23.2 8v-5.3M49 87.6v-5.4m4.6-19V58l4.6-2.8L63 58v5.3L58 66l-4.6-2.7L49 66l-4.7-2.7V58L49 55l4.6 2.7M63 74L58 71.5V66m-4.6 8l4.6-2.6m-9.3 0V66m0-10.8v-5.4l4.6-2.6 4.6 2.6v5.4m9.3 16.2V66l4.7-2.7L77 66v5.4M67.4 66L63 63.3M58 49.8l4.7-2.6 4.5 2.6v5.4L63 58m9.2 5.3V58L77 55l4.5 2.7v5.3L77 66m0-10.8v-5.4l4.5-2.6 4.7 2.6v5.4L81.5 58m-14-2.8l4.7 2.7M35 95.6v-5.4l4.6-2.7 4.7 2.7m-28 5.4v-5.4l4.7-2.7 4.6 2.7v5.4m0-5.4l4.7-2.7 4.7 2.7m-9.4-10.8V74l4.7-2.6L35 74v5.5l-4.7 2.7-4.7-2.7-4.6 2.7-4.7-2.7V74l4.7-2.6 4.6 2.7M21 87.7v-5.4m18.6 5.4v-5.4m-9.3 5.4v-5.4M7 95.7v-5.4l4.7-2.7 4.6 2.7m-18.6 5.4v-5.4l4.7-2.7L7 90.3m-4.6-8l-4.7-2.8V74l4.7-2.6L7 74v5.5l-4.6 2.7zm14-2.8l-4.7 2.7L7 79.5m-4.6 8v-5.3m9.3 5.4v-5.4m4.6-8l-4.6-2.8V66l4.6-2.7L21 66v5.4m-18.6 0V66L7 63.3l4.7 2.7M2.4 49.8L7 47.2l4.7 2.6v5.4L7 58 2.4 55v-5.4l-4.7-2.6v-5.4L2.4 39 7 42v5.4m4.7 8l4.6 2.7v5.3M7 74l4.7-2.6M7 58v5.3m23.3 8V66l4.7-2.7 4.6 2.7v5.4L35 74M16.3 58L21 55l4.6 2.7v5.3L21 66m9.3 0l-4.7-2.7m4.7-13.5l4.7-2.6 4.6 2.6v5.4L35 58 30.3 55v-5.4l-4.7-2.6v-5.4L21 39v-5.3l4.6-2.7 4.7 2.7V39L25.6 42m-14 8l4.7-2.6 4.7 2.6v5.4m4.6 2.7l4.7-2.8M35 58v5.3m0-16v-5.5l4.6-2.7 4.7 2.8v5.4l-4.7 2.6M25.6 31v-5.4l4.7-2.7 4.7 2.6V31l-4.7 2.7m4.7-8l4.6-2.8 4.7 2.6V31l-4.7 2.7L35 31m-4.7 8L35 42m4.6-2.7v-5.3M21 39L16.3 42 11.7 39v-5.3l4.6-2.7 4.7 2.7m-4.7 8v5.5m-14-13.5L-2.2 31v-5.4L2.4 23 7 25.5V31l-4.6 2.7zm4.7-8l4.7-2.8 4.6 2.6V31m-14 8v-5.3m9.4 0L7 31m0 10.8l4.7-2.7m0-21.5L7 14.8V9.4l4.7-2.7 4.6 2.7v5.4l-4.6 2.7zm0 5.4v-5.5M2.4 23v-5.5L7 14.8m0-5.4L2.4 6.7V1.3L7-1.4l4.7 2.7v5.4m23.3 8V9.5l4.6-2.7 4.7 2.7v5.4l-4.7 2.7-4.6-2.7zm4.6 8.2v-5.5m-14 8L21 23v-5.5l4.6-2.7 4.7 2.7V23m-14-13.6L21 6.7l4.6 2.7v5.4M35 9.4l-4.7-2.7V1.3L35-1.4l4.6 2.7v5.4m-28-5.4l4.7-2.7L21 1.3v5.4m4.6 2.7l4.7-2.7m0 10.8l4.7-2.7M16.3 25.6L21 23m0-5.5l-4.7-2.7m60.6 35L72 47.2v-5.4L77 39l4.5 2.8v5.4m-18.6 0v-5.4l4.5-2.7 4.7 2.8M63 25.6l4.5-2.7 4.7 2.6V31l-4.7 2.7L63 31v-5.4L58 23v-5.5m14 8L77 23l4.5 2.6V31L77 33.7 72 31m4.7 8v-5.3M67.4 39v-5.3m-14 13.5v-5.4l4.7-2.7L63 42m-18.7 0L49 39l4.6 2.8m-9.3-16.2L49 23l4.6 2.6V31L49 33.7 44.2 31M63 31L58 33.7 53.6 31m4.6 8v-5.3M49 39v-5.3m4.6-19V9.5l4.6-2.7L63 9.4v5.4L58 17.5l-4.6-2.7-4.7 2.7-4.7-2.7m4.6 8v-5.3m4.6-8L49 6.6V1.3l4.6-2.7 4.6 2.7v5.4m-14 2.7L49 6.7M77 23v-5.5l4.5-2.7 4.7 2.7V23l-4.7 2.6m-4.6-8L72 14.7V9.4L77 6.7l4.5 2.7v5.4m-14 8v-5.3l4.7-2.7m-4.7 2.7L63 14.8M72 9.4l-4.7-2.7V1.3l4.7-2.7L77 1.3v5.4M63 9.4l4.5-2.7m-14 19l4.7-2.8m-14 40.3L39.7 66m0-10.8l4.7 2.7m-4.7 13.4l4.7 2.7M67.5 50l4.7-2.6M49 49.8l-4.7-2.6m-18.7 0L21 49.8m83.8 37.8l-4.7 2.7-4.5-2.7v-5.4l4.6-2.7 4.8 2.7v5.4l4.6 2.7m0-10.8l-4.6 2.7M100 95.7v-5.4m-18.5 0l4.7-2.7 4.6 2.7v5.4M81.5 74l4.7-2.6 4.6 2.7v5.5l-4.6 2.7-4.7-2.7m9.3 0l4.7 2.7m-9.3 5.4v-5.4m4.6 8l4.7-2.6m0-16.2V66l4.6-2.7L105 66v5.4L100 74l-4.5-2.6-4.7 2.7m-4.6-18.8l4.6 2.7v5.3L86.2 66l-4.7-2.7m4.7 8V66m9.3-10.8v-5.4l4.6-2.6 4.8 2.6v5.4L100 58 95.6 55 90.8 58m9.3 5.3V58M91 63.2l4.7 2.7m14-2.7l-4.7 2.7m0 5.4l4.6 2.7m-4.6-18.8l4.6 2.7M100 79.4V74m0-26.8v-5.4L105 39l4.6 2.8m-9.3 0L95.6 39v-5.3L100 31l4.8 2.7V39m4.6-8l-4.6 2.7m-23.3 8l4.7-2.6 4.6 2.8v5.4l-4.6 2.6m0-27l4.6 2.8V31l-4.6 2.7-4.7-2.7m18.6 0v-5.4L105 23l4.6 2.6M90.8 31l4.7 2.7M86.2 39v-5.3m4.6 8l4.7-2.6m-9.3-21.5l4.6-2.7 4.7 2.7V23l-4.7 2.6m0-10.8V9.4l4.7-2.7 4.6 2.7v5.4l-4.5 2.7m-14-8l4.7-2.8 4.6 2.7m-4.6-2.7V1.3l4.6-2.7 4.7 2.7v5.4m4.6 8l4.8 2.8V23m4.6-8.2l-4.6 2.7m-4.7-8l4.8-2.8 4.6 2.7m-14-8l4.7-2.8 4.8 2.7v5.4M95.5 23l4.6 2.6m9.4 21.6l-4.6 2.6m-14-2.6l4.7 2.6m9.3-59.3L100-6.8l-4.5-2.7V-15l4.6-2.5L105-15v5.5l4.6 2.7m0-10.7l-4.6 2.6M100-1.3v-5.4M91-1.4v-5.4l4.7-2.7m-14 2.7L77-9.5V-15l4.5-2.5 4.7 2.6v5.5l-4.7 2.7v5.4L77 1.3m13.8-8l-4.6-2.8m9.3-5.4l-4.7-2.5V-23l4.7-2.6L100-23v5.5M77-15L72-17.4V-23l4.7-2.6 4.5 2.7v5.5m4.7 2.6l4.6-2.5M95.5-31l-4.7-2.7V-39l4.7-2.8L100-39v5.3L95.6-31zm0 5.4V-31m-4.7 8l-4.6-2.6V-31l4.6-2.7M86.2-31l-4.7-2.7V-39l4.7-2.8 4.6 2.7M86.2-42v-5.4l4.6-2.7 4.7 2.8v5.4m4.6 8L105-31v5.4L100-23m9.4-10.7l-4.6 2.7m-9.3-16.2L100-50 105-47v5.4L100-39M105-42l4.6 2.7m-28 16l4.8-2.6m18.6 0l4.6 2.7M100-50v-5.3L105-58l4.6 2.7m0-10.8l-4.6 2.6L100-66v-5.5l4.8-2.7 4.6 2.7m-4.6 8v5.5m-4.7 2.7L95.6-58v-5.4L100-66M86.3-47.3L81.5-50v-5.3l4.7-2.7 4.6 2.7v5.4M86.2-74l4.6 2.7v5.4l-4.6 2.6-4.7-2.7v-5.5l4.7-2.7v-5.4l4.6-2.6 4.7 2.6m-4.7 8l4.7-2.6 4.6 2.7m-4.5 8L90.8-66m0 10.7l4.7-2.7m-9.3 0v-5.4m9.3-10.8v-5.4l4.6-2.6 4.8 2.6v5.4m-23.3 2.7L77-74.2v-5.4l4.5-2.6 4.7 2.6m-4.7-2.6v-5.4l4.7-2.7 4.6 2.7v5.4m-4.6-8v-5.5m18.6 0v5.4l-4.7 2.7-4.5-2.7v-5.4m4.6 13.5v-5.4m-4.5-2.7l-4.7 2.7m18.6 5.4l-4.6 2.6m0-10.7l4.6 2.7m0 37.7l-4.6 2.8M72.2-1.4v-5.4L77-9.5M67.4 1.3L63-1.4v-5.4l4.5-2.7 4.7 2.7m0-10.7L67.5-15 63-17.4V-23l4.5-2.6 4.7 2.7m-4.7 8v5.5m-14 8v-5.3l4.7-2.7L63-6.8m-14 8l-4.7-2.6v-5.4L49-9.5l4.6 2.7m-9.3-16l4.6-2.8 4.6 2.7v5.5L49-15l-4.7-2.5V-23l-4.7-2.6V-31m14 13.5l4.6 2.6v5.5m-9.3 0V-15m4.6-18.7V-39l4.6-2.8L63-39v5.3L58-31l-4.6-2.7zM63-23L58-25.5V-31M49-25.6V-31l4.6-2.7M49-31l-4.7-2.7V-39L49-42l4.6 2.7M49-42v-5.4l4.6-2.7 4.6 2.8v5.4M77-25.6V-31l4.5-2.7M77-31L72-33.7V-39L77-42l4.5 2.7M63-33.8l4.5 2.7v5.4M72.2-39L67.5-42v-5.4l4.7-2.7L77-47v5.4M63-39l4.5-2.8m4.7 8L67.5-31m-14 8l4.7-2.6m0 10.7l4.7-2.5M30.2 1.3l-4.7-2.7v-5.4l4.7-2.7L35-6.8v5.4m-4.7-8V-15l4.7-2.5 4.6 2.6v5.5L35-6.8M16.3-1.4v-5.4L21-9.5l4.6 2.7m4.7-8l-4.7-2.7V-23l4.7-2.6L35-23v5.5m-9.4 0L21-15l-4.7-2.5V-23l4.7-2.6 4.6 2.7M21-15v5.5m-4.7 2.7l-4.6-2.7V-15l4.6-2.5M2.3 1.3l-4.6-2.7v-5.4l4.7-2.7L7-6.8v5.4m0-16L2.4-15l-4.7-2.5V-23l4.7-2.6L7-23v5.5l4.7 2.6m0 5.5L7-6.8M2.4-9.5V-15m9.3-16L7-33.7V-39l4.7-2.8 4.6 2.7v5.3L11.7-31zm4.6 8l-4.6-2.6V-31m-9.3 5.4V-31L7-33.7M7-39L2.4-42v-5.4L7-50l4.7 2.8v5.4m32.6 8L39.6-31 35-33.7V-39l4.6-2.8 4.7 2.7M21-25.7V-31l4.6-2.7 4.7 2.7v5.4M21-47.2l4.6-2.7 4.7 2.8v5.4L25.6-39 21-42v-5.4L16.3-50v-5.3L21-58l4.6 2.7m4.7 8l4.7-2.6 4.6 2.8v5.4m-9.3 0L35-39m-9.4 5.3V-39m9.4 5.3L30.3-31m4.7 8l4.6-2.6M21-31l-4.7-2.7m0-5.4L21-42m-14 19l4.7-2.8M35-55.3L30.3-58v-5.4L35-66l4.6 2.6v5.4L35-55.3v5.4m-9.4 0v-5.3l4.7-2.7m0-5.4L25.6-66v-5.5l4.7-2.7 4.7 2.7v5.4m-9.4 0L21-63.5 16.3-66v-5.5l4.7-2.7 4.6 2.7m4.7-2.7v-5.4l4.7-2.6 4.6 2.6v5.4L35-71.5m-14 8v5.5M7-50v-5.3l4.7-2.7 4.6 2.7m-14 8l-4.6-2.6v-5.3L2.4-58 7-55.3m-4.6-8l-4.7-2.8v-5.5l4.7-2.7L7-71.5v5.4l-4.6 2.6zm14-8.2l-4.7-2.7v-5.4l4.6-2.6 4.7 2.6v5.4M11.7-58v-5.4l4.6-2.7m-14 8v-5.4M7-66l4.7 2.6m0-10.8L7-71.5m-4.6-2.7v-5.4L7-82.2l4.7 2.6m0-16v5.3L7-87.6l-4.6-2.7v-5.4m18.6 0v5.4l-4.7 2.7-4.6-2.7M7-87.6v5.4m9.3-5.4v5.4m4.7-8l4.6 2.6v5.4L21-79.6m9.3 0l-4.7-2.6m4.7-13.5v5.4l-4.7 2.7m23.3-8v5.3l-4.7 2.7-4.7-2.7v-5.4M35-82.2v-5.4l4.6-2.7m-9.3 0l4.7 2.7M72.2-50v-5.3L77-58l4.5 2.7m-14 8L63-49.8v-5.3l4.5-2.7 4.7 2.7m-4.7-19l4.7 2.8v5.4l-4.7 2.6L63-66v-5.5l4.5-2.7v-5.4l4.7-2.6 4.7 2.6M81.4-66L77-63.5 72-66m0-5.5l4.7-2.7m0 10.8v5.4m-9.5 0v-5.4M53.5-50v-5.3l4.7-2.7 4.7 2.7m-14 8l-4.7-2.6v-5.3L49-58l4.6 2.7M44.3-66v-5.5l4.6-2.7 4.6 2.7v5.4L49-63.5 44.2-66l-4.7 2.6M63-66L58-63.5 53.6-66m0-5.5l4.6-2.7 4.7 2.7M58-58v-5.4M49-58v-5.4m0-10.8v-5.4l4.6-2.6 4.6 2.6v5.4M49-79.6l-4.7-2.6v-5.4m14-8v5.3l-4.7 2.7-4.7-2.7m4.6 2.7v5.4m4.6 2.6l4.7-2.6 4.5 2.6M63-82.2v-5.4l4.5-2.7 4.7 2.7v5.4m-4.7-8v-5.5m9.4 0v5.4L72-87.6m-14-2.7l4.7 2.7m-18.7 70l-4.7 2.7m0 5.5l4.7 2.7m-4.7-67.4l4.7 2.7M39.6-58l4.7 2.7m0 5.4L39.6-47M63-50L58-47m-42-2.7L11.8-47m32.6-35l-4.7 2.6M77-90.3l4.5 2.7m0 37.7L77-47M86 1.3l-4.7-2.7m-37.2 0l-4.7 2.7M63-1.4L58 1.3m51.2-2.7l-4.6 2.7M25.6-1.4L21 1.3M-95.4 95.7v-5.4l4.7-2.7 4.6 2.7v5.4m0-5.4l4.6-2.7 4.7 2.7v5.4m-28 0v-5.4l4.7-2.7 4.6 2.7m-4.6-8l-4.7-2.8V74l4.7-2.6 4.6 2.7v5.5l-4.6 2.7zm4.6-8.2l4.7-2.6L-86 74v5.5l-4.7 2.7-4.7-2.7M-86 74l4.6-2.6 4.7 2.7v5.5l-4.7 2.7-4.7-2.7m-14 8v-5.3m9.3 5.4v-5.4m9.3 5.4v-5.4m-28 5.4l4.7 2.7m0-10.8l-4.6 2.7m0-27l4.6 2.7v5.3l-4.6 2.7m0 5.4l4.6 2.7m14-8l-4.7-2.7V58l4.7-2.8L-86 58v5.3l-4.7 2.7v5.4M-86 58l4.6-2.8 4.7 2.7v5.3l-4.7 2.7-4.7-2.7m4.6 8V66m-18.6 5.4V66l4.6-2.7m0-5.4L-100 55v-5.4l4.6-2.6 4.7 2.6v5.4m9.3 0v-5.4l4.7-2.6 4.6 2.6v5.4l-4.7 2.7m-23.3 8l-4.7-2.7m0-5.4l4.7-2.8m14-13.4l-4.7-2.7v-5.3L-86 31l4.6 2.7V39L-86 42zm4.6 8l-4.7-2.6v-5.4m-14 8l-4.7-2.6v-5.4l4.7-2.7 4.6 2.8v5.4m0-16.2l-4.6 2.7-4.7-2.7v-5.4l4.7-2.7 4.6 2.6V31l4.7 2.7M-86 31v-5.4l4.6-2.7 4.7 2.6V31l-4.7 2.7M-100 39v-5.3m9.3 5.4l-4.7 2.8m-14-2.7l4.7 2.8m0-10.8l-4.6 2.7m0-27l4.6 2.7v5.4l-4.6 2.7m23.2-2.7V9.4l4.6-2.7 4.7 2.7v5.4l-4.7 2.7-4.7-2.7zm4.6 8v-5.3m-4.7 8l-4.7-2.6v-5.5l4.6-2.7m-14 8v-5.3l4.6-2.7 4.7 2.7M-100 6.7V1.3l4.6-2.7 4.7 2.7v5.4l-4.7 2.7-4.6-2.7zm18.6 0V1.3l4.7-2.7 4.6 2.7v5.4l-4.7 2.7m-14-2.7l4.6 2.7m-9.4 5.4V9.4m0 16.2l4.7-2.7m-9.3-5.5l-4.7-2.7m0-5.4l4.7-2.7m-9.3 16.2l4.6 2.6M-86 47.2l-4.7 2.6m-14-2.6l-4.6 2.6m97.7 46v-5.5l4.7-2.7 4.7 2.7M-21 95.7v-5.4l4.8-2.7 4.6 2.7m-4.6-8l-4.7-2.8V74l4.8-2.6 4.6 2.7v5.5l-4.6 2.7v5.4m14-8L-7 82l-4.6-2.7m4.7 2.7v5.4m-23.2 8v-5.3l4.7-2.7 4.6 2.7m-18.5 5.4v-5.4l4.7-2.7 4.6 2.7m-9.3-10.8V74l4.7-2.6 4.6 2.7v5.5l-4.6 2.7-4.7-2.7-4.7 2.7-4.6-2.7m28 0l-4.7 2.7-4.7-2.7m-4.6 8v-5.3m9.3 5.4v-5.4m4.6-8l-4.5-2.8V66l4.6-2.7L-16 66v5.4m-14 2.7l4.7-2.6m0-5.4l-4.7-2.7V58l4.7-2.8L-21 58v5.3M-39.4 74l-4.7-2.6V66l4.7-2.7 4.7 2.7v5.4m4.6-13.5l-4.6-2.8v-5.4l4.6-2.6 4.7 2.6v5.4m-14 8V58l4.7-2.8m4.6 8l-4.6 2.8m23.2 8l4.7-2.6 4.7 2.7M-7 66l-4.6-2.7V58L-7 55l4.7 2.7v5.3L-7 66v5.4M-16 66l4.6-2.7m0-5.4l-4.6-2.8v-5.4l4.6-2.6 4.7 2.6v5.4m-9.2 0L-21 58m-27.8 37.7v-5.4l4.6-2.7 4.7 2.7M-58 95.7v-5.4l4.5-2.7 4.7 2.7M-58 79.5V74l4.5-2.6 4.7 2.7v5.5l-4.7 2.7-4.6-2.7-4.8 2.7-4.6-2.7m23.2 8v-5.3m-9.3 5.4v-5.4m-14 13.5v-5.4l4.7-2.7 4.7 2.7m-18.7 0l4.6-2.7 4.6 2.7M-76.7 74l4.6-2.6 4.6 2.7v5.5l-4.7 2.7-4.7-2.7m14 8v-5.3m-9.4 5.4v-5.4m4.6-8l4.6-2.8L-58 74m-4.8-2.6V66l4.7-2.7 4.5 2.7v5.4m-9.3-5.4l-4.6-2.7V58l4.6-2.8L-58 58v5.3m-18.7 0L-72 66v5.4m9.2-16.2v-5.4l4.7-2.6 4.5 2.6v5.4L-58 58m-9.4 5.3L-72 66m0-10.8l4.6 2.7m18.6 16l4.6-2.6m0-5.4l-4.6-2.7V58l4.6-2.8 4.7 2.7m-14-8.2l4.7-2.6 4.6 2.6v5.4M-53.5 66l4.7-2.7m-4.7-8l4.7 2.6m0-10.8v-5.4l4.6-2.7 4.7 2.8v5.4l-4.7 2.6m-14-2.6v-5.4l4.7-2.7 4.7 2.8M-58 25.6l4.5-2.7 4.7 2.6V31l-4.7 2.7L-58 31v-5.4L-63 23v-5.5m14 8l4.6-2.6 4.7 2.6V31l-4.7 2.7-4.6-2.7m4.6 8v-5.3m-9.3 5.4v-5.3m-9.3 16l-4.6-2.5v-5.4l4.6-2.7L-58 42m-18.7 5.4v-5.4L-72 39l4.6 2.8m-9.3-16.2L-72 23l4.6 2.6V31l-4.7 2.7-4.7-2.7m18.6 0l-4.8 2.7-4.6-2.7m-4.7 8v-5.3M-63 39v-5.3m-4.6-19V9.5l4.6-2.7 4.7 2.7v5.4l-4.8 2.7-4.6-2.7-4.7 2.7-4.7-2.7m4.6 8v-5.3M-63 6.7V1.3l4.7-2.7 4.5 2.7v5.4L-58 9.4m-14-2.7l4.6 2.7M-44.2 23v-5.5l4.7-2.7 4.7 2.7V23l-4.7 2.6m-4.7-8l-4.6-2.8V9.4l4.6-2.7 4.7 2.7v5.4m-9.3 0l-4.7 2.7-4.6-2.7m4.5 8v-5.3m9.3-10.8V1.3l4.7-2.7 4.7 2.7v5.4l-4.7 2.7m-14-2.7l4.7 2.7m-18.6 16.2l4.6-2.7M-11.6 47v-5.4L-7 39l4.7 2.8m-9.3 0l-4.6-2.7v-5.3l4.6-2.7 4.7 2.7V39m-9.2-5.3L-21 31v-5.4L-16 23l4.6 2.6V31m9.3 0L-7 33.7M-30 47.2v-5.4l4.7-2.7L-21 42v5.4l-4.5 2.6m-14-8l4.7-2.7 4.6 2.8m-4.6-19l4.6 2.8V31l-4.6 2.7-4.7-2.7m18.6 0l-4.5 2.7-4.7-2.7m-4.6 8v-5.3m9.3 5.4v-5.3m4.6-8l-4.5-2.8v-5.5l4.6-2.7 4.8 2.7V23m-9.3-5.5l-4.7-2.7V9.4l4.7-2.7 4.6 2.7v5.4m-4.5-8V1.2l4.6-2.7 4.8 2.7v5.4L-21 9.4m-9.2 5.4l-4.6 2.7m0-10.8l4.6 2.7m23.3 8l-4.6-2.6V9.4L-7 6.7l4.7 2.7v5.4L-7 17.5V23l-4.6 2.6m0-10.8l-4.6 2.7m0-10.8l4.6 2.7m-4.6-8l4.6-2.8L-7 1.3v5.4M-7 23l4.7 2.6m-28 0l4.8-2.7m9.3 16L-21 42m-46.4 5.4l-4.7 2.6m69.7-2.6L-7 49.8m-27.8 0l-4.7-2.6m23.3 2.6l-4.7-2.6m-60.4-8l4.7 2.6m65-43.2v-5.4l4.8-2.7 4.7 2.7m-9.3 0l-4.6-2.7V-15l4.6-2.5L-7-15v5.5M-16-15l-4.7-2.5V-23l4.8-2.6 4.6 2.7v5.5m9.3 0L-7-15M-21-1.3v-5.4l4.8-2.7M-21-6.8l-4.5-2.7V-15l4.6-2.5m-4.5 8l-4.7 2.7-4.6-2.7V-15l4.6-2.5 4.7 2.6m-4.7 8.2v5.4l-4.6 2.7m-4.7-2.7v-5.4l4.7-2.7m0-5.4l-4.7-2.5V-23l4.7-2.6 4.6 2.7v5.5m0-16.2V-39l4.7-2.8L-21-39v5.3l-4.5 2.7-4.7-2.7-4.6 2.7-4.7-2.7V-39l4.7-2.8 4.6 2.7m9.3 16l-4.5-2.6V-31m-9.3 5.4V-31m-4.7-8l-4.7-2.8v-5.4l4.7-2.7 4.7 2.8v5.4m9.3 0v-5.4L-21-50-16-47v5.4L-21-39m14 8l-4.6-2.7V-39L-7-42l4.7 2.7v5.3L-7-31v5.4l-4.6 2.7m-4.6-2.6V-31l4.6-2.7m-4.6-8l4.6 2.6m-4.6-8.2l4.6-2.7L-7-47v5.4m-23.2 19l4.7-2.8m9.3-5.4l-4.7-2.7m14 8l4.7 2.8m-42 24.3l-4.5-2.7v-5.4l4.6-2.7 4.7 2.7M-58-1.4v-5.4l4.5-2.7 4.7 2.7m-9.3 0L-63-9.5V-15l4.7-2.5 4.5 2.6v5.5m-9.3-5.4l-4.6-2.5V-23l4.6-2.6L-58-23v5.5m18.5 0l-4.7 2.6-4.6-2.5V-23l4.6-2.6 4.7 2.7m-4.7 13.5V-15m-9.3 0l4.7-2.5m-14 18.8l-4.6-2.7v-5.4l4.6-2.7m-14 2.7l-4.6-2.7V-15l4.7-2.5L-72-15v5.5l-4.7 2.7v5.4m0-16V-23l4.6-2.6 4.6 2.7m0 5.5L-72-15m0 5.5l4.6 2.7m0-27V-39l4.6-2.8L-58-39v5.3L-63-31l-4.6-2.7zm4.6 8.2V-31m-9.3 5.4V-31l4.6-2.7M-72-31l-4.7-2.7V-39L-72-42l4.6 2.7m-9.3 0l-4.7-2.8v-5.4l4.7-2.7L-72-47v5.4m9.2 0v-5.4L-58-50l4.5 2.8v5.4L-58-39m13.8 13.4V-31l4.7-2.7m-4.7 2.7l-4.6-2.7V-39l4.6-2.8m-4.6 8l-4.7 2.8-4.6-2.7M-49-23l-4.7-2.6V-31m0-10.8l4.7 2.7M-58-23l4.5-2.6M-58-50v-5.3l4.5-2.7 4.7 2.7v5.4l-4.7 2.8m4.7-8l4.6-2.8 4.7 2.7v5.4M-58-71.4l4.5-2.7 4.7 2.7v5.4l-4.7 2.6L-58-66v-5.5zm9.2 0l4.6-2.7 4.7 2.7v5.4l-4.7 2.6-4.6-2.7m4.6 8v-5.4m-9.3 5.4v-5.4M-76.7-50v-5.3L-72-58l4.6 2.7v5.4L-72-47m4.6-8l4.6-2.8 4.7 2.7m-18.7 0l-4.7-2.7v-5.4l4.7-2.7 4.6 2.6v5.4m-9.4-5.4L-86-66v-5.5l4.6-2.7 4.7 2.7v5.4m-4.7-8.2v-5.4l4.7-2.6 4.6 2.6v5.4l-4.7 2.7M-58-66l-4.8 2.6-4.6-2.7v-5.5l4.6-2.7 4.7 2.7M-63-58v-5.4M-72-74.2l4.6 2.7m0 5.4l-4.7 2.6m4.6-18.8v-5.4l4.6-2.7 4.7 2.7v5.4l-4.8 2.6-4.6-2.6-4.7 2.6m-4.7-2.6v-5.4l4.6-2.7 4.6 2.7m-4.7-2.7v-5.4m9.2 5.4v-5.4m9.3 21.5v-5.4l4.7-2.6 4.6 2.6v5.4m-14-8l4.7 2.6m-4.6-8l4.5-2.7 4.7 2.7v5.4m-4.7-8v-5.5m9.3 0v5.4l-4.6 2.7m-14 13.4v-5.4M-11.6-50v-5.3L-7-58l4.7 2.7M-21-50v-5.3L-16-58l4.6 2.7m-4.6-8l-4.7-2.8v-5.5l4.8-2.7 4.6 2.7v5.4l-4.6 2.6v5.4m14-8L-7-63.5l-4.6-2.7m0-5.5l4.7-2.7 4.7 2.7m-4.6 8v5.5m-18.5 10.8l-4.7-2.7v-5.3l4.7-2.7 4.6 2.7m-18.5 0l4.7-2.7 4.6 2.7m-9.3-16.2l4.7-2.7 4.6 2.7v5.4l-4.6 2.6-4.7-2.7m18.6-5.5l-4.5-2.7v-5.4l4.6-2.6 4.8 2.6v5.4m-4.7 8l-4.5 2.8-4.7-2.7m4.7-8.2l-4.7 2.7m-4.6 8v5.5m9.3 0v-5.4m-9.3-10.8v-5.4l4.6-2.6 4.7 2.6m-18.7 0l4.7-2.6 4.7 2.6m-4.7-2.6v-5.4l4.7-2.7 4.6 2.7v5.4m-4.6-8v-5.5m18.6 0v5.4l-4.7 2.7-4.5-2.7v-5.4m0 5.4l-4.7 2.7m9.3 5.4v-5.4m14 8l-4.6-2.6v-5.4l4.7-2.7 4.7 2.7v5.4L-7-79.6v5.4m-9.2-5.4l4.6-2.6m0-5.4l-4.6-2.7m9.3-5.4v5.4m-37.2 0l4.7 2.7m-23.3 40.4l-4.6-2.7m23.2 2.8l-4.6-2.7m18.6 0l-4.6 2.8M-2.3-50L-7-47M-95.3-1.4v-5.4l4.7-2.7 4.6 2.7v5.4l-4.7 2.7m4.6-8l4.6-2.8M-100 1.3l-4.7-2.7v-5.4l4.7-2.7 4.6 2.7m0-10.7L-100-15l-4.7-2.5V-23l4.7-2.6 4.6 2.7v5.5zm0-5.4l4.7-2.6L-86-23v5.5l-4.7 2.6-4.7-2.5m14 2.6l-4.7-2.5m-14 8V-15m9.3 0v5.5m-18.6 0l4.6 2.7m0-10.7l-4.6 2.6m0-26.8l4.6 2.7v5.3l-4.6 2.7m18.6 5.4V-31l4.6-2.7 4.6 2.7v5.4L-86-23m-14-2.6V-31l4.6-2.7 4.7 2.7m-9.3-16.2l4.6-2.7 4.7 2.8v5.4l-4.7 2.7-4.6-2.8v-5.4l-4.7-2.7m14 8.2L-86-39v5.3m0-5.4l4.6-2.8m-14 8V-39m-14 13.4l4.7 2.7m4.7-8l-4.7-2.7m0-5.4l4.7-2.8m4.6-8v-5.5l4.7-2.7 4.6 2.7v5.4l-4.7 2.8m4.6-8l4.6-2.8m-14 2.7L-100-58v-5.4l4.6-2.7 4.7 2.6v5.4m-9.3-5.4l-4.7-2.7v-5.5l4.7-2.7 4.6 2.7v5.4m0-5.5l4.7-2.7 4.6 2.7m0 5.4l-4.7 2.6m-18.6 5.4l4.6 2.7v5.4l-4.6 2.8m0-27l4.6 2.7m0 5.4l-4.6 2.6m0-27l4.6 2.8v5.4l-4.6 2.6m28 0l-4.8-2.6v-5.4l4.6-2.7 4.7 2.7m-9.4 5.4l-4.7 2.6-4.7-2.6v-5.4l4.7-2.7 4.6 2.7m-14 13.4v-5.4l4.6-2.6m0-5.4l-4.6-2.7v-5.4m18.6 0v5.4m-9.3-5.4v5.4m0 10.7v5.4m-14 19l4.7-2.8m0-21.6l-4.7-2.6m0-5.4l4.7-2.7m18.6 43l-4.7-2.6m9.3 16.3l-4.7 2.7m0 5.4l4.7 2.7m9.3 21.6L-72 1.3m-32.7-2.7l-4.6 2.7m28 0l-4.8-2.7m60.5 2.7l-4.7-2.7m-23.3 2.7l4.7-2.7m46.5 0L-7 1.3M-2.2 58L2.4 55m0 10.8l-4.7-2.7m0-102.4L2.4-42m0 10.8l-4.7-2.7m4.7-46L-2.3-82m0-5.4l4.7-2.7M-2.3 9.4l4.7-2.7m0 10.8l-4.7-2.7" fill="none" stroke-miterlimit="1" stroke="#989898" fill-rule="evenodd" stroke-linecap="square" stroke-width=".5"/></symbol><path d="M217.5 109c0 29.8-10.5 55.3-31.6 76.7l-2.5 2.3c-3.4 3.3-7 6.4-11 9.2-18.2 13.5-39.3 20.2-63.3 20.2s-45-6.7-63.2-20.2c-4.8-3.4-9.3-7.2-13.5-11.5C16.2 169.3 6 150.4 2.5 129c-.8-4.3-1.3-8.5-1.6-13-.2-2.3-.2-4.7-.2-7v-7.3l.3-.7c1.7-26.6 12.2-49.6 31.5-69C54 11 79.5.5 109.3.5c30 0 55.4 10.5 76.6 31.5 21 21.5 31.5 47 31.5 77" fill="#efeeee" fill-rule="evenodd"/><path d="M195.4 43L173 65.4c-8.8 13-13.2 28-13.2 44.6 0 18 5 33.8 15.2 47.7l19 19c-2.5 3-5.2 6-8 9l-2.5 2.2c-2.5 2.4-5 4.8-8 7l-17.4-17.7c-13.8-10.7-30-16-48.5-16-18 0-33.8 5-47.7 15.2L43.2 195c-3.7-2.7-7.3-6-10.7-9.4-2.8-2.8-5.4-5.6-7.8-8.6l19-19.2C54 143.8 59 127.8 59 110c0-17.5-5-33-14.7-46.6l-21-21c2.8-3.6 6-7 9.2-10.4 3-2.8 6-5.5 9-8L62 44.3c13.7 10.3 29.6 15.4 47.5 15.4 18.5 0 34.7-5.4 48.6-16l19.4-19.4c3 2.4 5.7 5 8.5 7.7 3.4 3.6 6.5 7.2 9.4 11" fill="#010101" fill-rule="evenodd"/><g clip-path="url(#b)"><use xlink:href="#c" width="228.6" height="197.2" x="-114.3" y="-98.6" transform="matrix(1.1415 0 0-1.1415 105.5 107.75)"/></g><g fill-rule="evenodd"><path d="M79 111v-2-2-.2c.6-7.4 3.5-13.8 8.8-19 6-6 13-9 21.3-9 8.4 0 15.5 3 21.3 9 6 5.8 8.8 13 8.8 21.2s-2.8 15.3-8.7 21.2c0 .2-.4.5-.6.6-1 1-2 1.8-3 2.6-5 3.7-11 5.6-17.6 5.6-6.5 0-12.4-2-17.4-5.6-1.3-1-2.6-2-3.8-3.2-4.5-4.5-7.3-9.7-8.3-15.7L79 111m47 16.2l3.7 3.6-3.6-3.6" fill="#35c6f4"/><g fill="none" stroke-miterlimit="1" stroke="#35c6f4"><path d="M158.6 60.3l-15 14.6m-112-42L72.5 74m53.7 53.5l3.7 3.6m27.4 27l27.7 28.6M153 154l-10.7-11.3M186.6 33l-28 27.3M33 186.3l27.5-27.5" stroke-width="2"/><path d="M158.6 60.3l-17 17.2m-82.2-16l17.2 17m-16 80.3L77 141.5M153 154l4 4m-17.6-17.6L153 154" stroke-width="7"/></g></g></svg>
