<svg xmlns="http://www.w3.org/2000/svg" xmlns:xlink="http://www.w3.org/1999/xlink" viewBox="0 0 218 218"><defs><clipPath id="b"><use xlink:href="#a"/></clipPath><path id="a" d="M159.8 110c0-16.7 4.4-31.6 13.3-44.6L195.7 43c-3-3.8-6-7.4-9.6-11-3-2.7-5.7-5.3-8.6-7.6L158 43.6c-13.8 10.7-30 16-48.5 16-18 0-33.8-5-47.6-15.2L41.3 24c-3 2.5-6 5.2-9 8-3.3 3.4-6.4 7-9.2 10.5l21 21C54 77 59 92.5 59 110c0 18-5 34-15.2 48l-19 19c2.3 3 5 5.8 7.7 8.7 3.4 3.4 7 6.6 10.7 9.5L62 176.5c14-10.2 29.8-15.3 47.7-15.3 18.5 0 34.7 5.4 48.6 16L176 195l8-7c.7-1 1.5-1.6 2.2-2.5 2.8-3 5.5-6 8-9l-19-19C165 144 159.8 128 159.8 110"/></defs><symbol id="c" viewBox="-114.3 -98.6 228.6 197.2"><path fill="none" fill-rule="evenodd" stroke="#989898" stroke-width=".5" stroke-miterlimit="1" d="M72.2 90.3l4.7-2.7 4.4 2.7v5.4L77 98.4l-5-2.7v-5.4zM63 95.7l-5 2.7-4.6-2.7v-5.4l4.6-2.7 4.7 2.7v5.4l4.5 2.7 4.7-2.7m-9-5.4l4.5-2.7 4.7 2.7M63 79.5V74l4.5-2.6 4.7 2.7v5.6l-4.7 2.7-4.6-2.6-5 2.3-4.6-2.6M72.2 74l4.7-2.8 4.4 2.7v5.4l-4.4 3-5-2.8m4.7 8v-5.4m-9.5 5.4v-5.4m14 13.5l4.7 2.7 4.5-2.7 4.7 2.7 4.6-2.7 4.8 2.7 4.6-2.7v-5.4l4.7-2.7v-5.4l-4.7-2.7V74l4.7-2.6V66l-4.6-2.7V58l4.6-3v-5.4l-4.6-2.6v-5.4L114 39v-5.3l-4.6-2.7v-5.4L114 23v-5.5l-4.6-2.7V9.4l4.7-2.7V1.3l-4.5-2.7v-5.4l4.7-2.7V-15l-4.6-2.5V-23l4.7-2.6V-31l-4.6-2.7V-39l4.3-3v-5.4l-4.6-2.7v-5.4L114-58v-5.4l-4.6-2.7v-5.6l4.7-2.7v-5.4l-4.5-2.6v-5.4l4.7-2.7v-5.4l-4.6-2.7-4.6 2.7-4.7-2.7-4.5 2.7-4.7-2.7-4.5 2.7-4.7-2.7-4.6 2.7-4.8-2.7-4.7 2.7-4.6-2.7-4.7 2.7-4.6-2.7-4.7 2.7-4.7-2.7-4.7 2.7-4.6-2.7-4.7 2.7-4.7-2.7-4.6 2.7-4.7-2.7-4.6 2.7L7-98.4l-4.6 2.7-4.7-2.7-4.6 2.7-4.5-2.7-4.6 2.7-4.8-2.7-4.5 2.7-4.7-2.7-4.6 2.7-4.7-2.7-4.7 2.7-4.6-2.7-4.7 2.7-4.6-2.7-4.7 2.7-4.6-2.7-4.7 2.7-4.7-2.7-4.7 2.7-4.7-2.7-4.8 2.7-4.7-2.7-4.6 2.7-4.8-2.7-4.6 2.7v5.4l-4.7 2.7v5.4l4.6 2.6v5.4l-4.7 2.7v5.4l4.6 2.5v5.4l-4.7 2.6v5.4l4.6 2.8v5.4L-114-39v5.3l4.7 2.7v5.4L-114-23v5.5l4.7 2.6v5.6l-4.7 2.7v5.4l4.7 2.7v5.4l-4.7 2.7V15l4.7 2.6V23l-4.7 2.6V31l4.7 2.7V39l-4.7 3v5.4l4.7 2.6v5.4L-114 58v5.3l4.7 2.7v5.4L-114 74v5.5l4.7 2.7v5.4l-4.7 2.7v5.4l4.7 2.7 4.6-2.7 4.7 2.7 4.6-2.7 4.7 2.7 4.6-2.7 4.5 2.7 4.7-2.7 4.6 2.7 4.6-2.7 4.6 2.7 4.7-2.7 4.5 2.7 4.7-2.7 4.5 2.7 4.7-2.7 4.7 2.7 4.5-2.7 4.7 2.7 4.6-2.7 4.8 2.7 4.6-2.7 4.7 2.7 4.6-2.7 4.7 2.7L7 95.7l4.7 2.7 4.6-2.7 4.7 2.7 4.6-2.7 4.7 2.7 4.7-2.7 4.6 2.7 4.7-2.7 4.6 2.7 4.5-2.7m-9.3 0v-5.4l4.6-2.7 4.6 2.7M44 79.5V74l4.7-2.6 4.6 2.7v5.6L49 82.2l-4.7-2.7-4.7 2.7-4.6-2.7m23.2 8v-5.3M49 87.6v-5.4m4.6-19V58l4.6-2.8L63 58v5.3L58 66l-4.6-2.7L49 66l-4.7-2.7V58l4.7-3 4.6 2.7M63 74l-5-2.5V66m-4.6 8l4.6-2.6m-9.3 0V66m0-10.8v-5.4l4.6-2.6 4.6 2.6v5.4M67 71.4V66l4.7-2.7 5 2.7v5.4M67.4 66L63 63.3m-5-13.5l4.7-2.6 4.5 2.6v5.4L63 58m9.2 5.3V58l4.8-3 4.5 2.7V63L77 66m0-10.8v-5.4l4.5-2.6 4.7 2.6v5.4L81.5 58m-14-2.8l4.7 2.7M35 95.5v-5.4l4.6-2.7 4.7 2.7m-28 5.4v-5.4l4.7-2.7 4.6 2.7v5.4m0-5.4l4.7-2.7 4.7 2.7m-9.4-10.8V74l4.7-2.6L35 74v5.5l-4.7 2.7-4.7-2.7-4.6 2.7-4.7-2.7V74l4.7-2.6 4.6 2.7M21 87.8v-5.4m18.6 5.4v-5.4m-9.3 5.4v-5.4M7 95.7v-5.4l4.7-2.7 4.6 2.7m-18.6 5.4v-5.4l4.7-2.7L7 90.3m-4.6-8l-4.7-2.8V74l4.7-2.6L7 74v5.5l-4.6 2.7zm14-2.8l-4.7 2.7L7 79.5m-4.6 8v-5.3m9.3 5.4v-5.4m4.6-8l-4.6-2.8V66l4.6-2.7L21 66v5.4m-18.6 0V66L7 63.3l4.7 2.7M2.4 49.8L7 47.2l4.7 2.6v5.4L7 58l-4.6-3v-5.4L-2.3 47v-5.4L2.4 39 7 42v5.4m4.7 8l4.6 2.7v5.4M7 74l4.7-2.6M7 58v5.3m23.3 8V66l4.7-2.7 4.6 2.7v5.4L35 74M16.3 58l4.7-3 4.6 2.7V63L21 66m9.3 0l-4.7-2.7m4.7-13.5l4.7-2.6 4.6 2.6v5.4L35 58l-4.7-3v-5.4L25.6 47v-5.4L21 39v-5.3l4.6-2.7 4.7 2.7V39l-4.7 3m-14 8l4.7-2.6L21 50v5.4m4.6 2.7l4.7-2.7M35 58v5.3m0-16v-5.5l4.6-2.7 4.7 3v5.3L39.6 50m-14-19v-5.4l4.7-2.7 4.7 2.5V31l-4.7 2.7m4.7-8l4.6-2.8 4.7 2.5V31l-4.7 2.7L35 31m-4.7 8l4.7 3m4.6-2.7V34M21 39l-4.7 3-4.6-3v-5.3l4.6-2.7 4.7 2.7m-4.7 8v5.5m-14-13.5L-2.2 31v-5.4L2.4 23 7 25.5V31l-4.6 2.7zm4.7-8l4.7-2.8 4.6 2.5V31m-14 8v-5.3m9.4 0L7 31m0 10.8l4.7-2.7m0-21.4L7 14.8V9.4l4.7-2.7 4.6 2.7v5.4l-4.6 2.7zm0 5.4v-5.5M2.4 23v-5.5L7 14.8m0-5.4L2.4 6.7V1.3L7-1.4l4.7 2.7v5.4m23.3 8V9.5l4.6-2.7 4.7 2.7V15l-4.7 2.6L35 15zm4.6 8.2v-5.6m-14 8L21 23v-5.5l4.6-2.7 4.7 2.7V23m-14-13.6L21 6.7l4.6 2.7v5.4M35 9.4l-4.7-2.7V1.3L35-1.4l4.6 2.7v5.4m-28-5.4l4.7-2.7L21 1.3v5.4m4.6 2.7l4.7-2.7m0 10.8l4.7-2.7M16.3 25.6L21 23m0-5.5l-4.7-2.7m60.6 35l-5-2.6v-5.4l5-2.8 4.5 2.8v5.4m-18.6 0v-5.4l4.4-2.7 4.7 3m-9-16.4l4.5-2.7 4.7 2.5V31l-4.7 2.7L63 31v-5.4L58 23v-5.5m14 8l5-2.5 4.5 2.6V31L77 33.7 72 31m4.7 8v-5.3M67.4 39v-5.3m-14 13.5v-5.4L58 39l5 3m-18.7 0l4.7-3 4.6 2.8m-9.3-16.2L49 23l4.6 2.6V31L49 33.7 44.2 31M63 31l-5 2.7-4.4-2.7m4.6 8v-5.3M49 39v-5.3m4.6-19V9.5l4.6-2.7L63 9.4v5.4l-5 2.7-4.6-2.7-4.7 2.7-4.7-2.7m4.6 8v-5.3m4.6-8l-4.2-3V1.4l4.6-2.7 4.6 2.7v5.4m-14 2.7L49 6.7M77 23v-5.5l4.5-2.7 4.7 2.7V23l-4.7 2.6m-4.6-8l-5-3V9.5l5-2.7 4.5 2.7v5.4m-14 8v-5.3l4.7-2.7m-4.7 2.7L63 14.8m9-5.4l-4.7-2.7V1.3L72-1.4l5 2.7v5.4M63 9.4l4.5-2.7m-14 19l4.7-2.8M44.2 63L39.7 66m0-10.8l4.7 2.7m-4.7 13.3l4.7 2.7m23-24l4.8-2.6M49 49.8l-4.7-2.6m-18.7 0L21 49.8m83.8 37.8l-4.7 2.7-4.4-2.7v-5.4l4.6-2.7 4.8 2.7v5.4l4.6 2.7m0-10.8l-4.6 2.7m-5 13.5v-5.4m-18.5 0l4.7-2.7 4.6 2.7v5.4M81.5 74l4.7-2.6 4.6 2.7v5.6l-4.6 2.7-4.7-2.7m9.3 0l4.7 2.7m-9.3 5.4v-5.4m4.6 8l4.7-2.6m0-16.2V66l4.6-2.7 5 2.7v5.4l-5 2.6-4.5-2.6-4.7 2.7m-4.6-18.7l4.6 2.7v5.3L86.2 66l-4.7-2.7m4.7 8V66m9.3-10.8v-5.4l4.6-2.6 5 2.6v5.4l-5 2.8-4.4-3-4.8 3m9.3 5.3V58m-9 5.2l4.7 2.7m14-2.8L105 66m0 5.3l4.6 2.7M105 55.2l4.6 2.7M100 79.3V74m0-26.8v-5.4l5-2.8 4.6 2.8m-9.3 0L95.6 39v-5.3L100 31l4.8 2.7V39m4.6-8l-4.6 2.7m-23.3 8l4.7-2.6 4.6 3v5.3L86.2 50m0-27l4.6 2.7V31l-4.6 2.7-4.7-2.7m18.6 0v-5.4l5-2.6 4.6 2.6M90.8 31l4.7 2.7M86.2 39v-5.3m4.6 8l4.7-2.6m-9.3-21.4l4.6-2.7 4.7 2.6V23l-4.7 2.6m0-10.8V9.4l4.7-2.7 4.6 2.7v5.4l-4.4 2.7m-14-8l4.7-2.8L91 9.4m-4.7-2.7V1.3L91-1.4l4.6 2.7v5.4m4.6 8l4.8 2.8V23m4.6-8.2l-4.6 2.7m-4.7-8l4.8-2.8 4.7 2.7m-14-8l4.7-2.8 4.8 2.7v5.4M95.5 23l4.6 2.6m9.5 21.6l-4.6 2.6m-14-2.6l4.6 2.6M105-9.5l-5 2.7-4.5-2.7V-15l4.6-2.5 5 2.5v5.5l4.6 2.7m0-10.7L105-15m-5 13.7v-5.4m-9 5.3v-5.4l4.7-2.7m-14 2.7L77-9.5V-15l4.5-2.5 4.7 2.6v5.6l-4.7 2.7v5.4L77 1.3m13.8-8l-4.6-2.8m9.3-5.4l-4.7-2.4V-23l4.7-2.6L100-23v5.5M77-15l-5-2.4V-23l4.7-2.6 4.5 2.7v5.6m4.7 2.6l4.5-2.5m5-13.7l-4.7-2.7V-39l4.7-2.8L100-39v5.3L95.6-31zm0 5.4V-31m-4.7 8l-4.6-2.6V-31l4.6-2.7M86.2-31l-4.7-2.7V-39l4.7-2.8 4.6 2.7m-4.6-3v-5.4l4.6-2.7 4.7 2.7v5.4m4.6 8l5 3v5.4l-5 2.6m9.4-10.7l-4.6 2.7m-9.3-16.2L100-50l5 3v5.4l-5 2.6m5-3l4.6 2.7m-28 16l4.8-2.6m18.6 0l4.6 2.8M100-50v-5.3l5-2.7 4.6 2.7m0-10.8l-4.6 2.5-5-2.5v-5.5l4.8-2.7 4.6 2.7m-4.6 8v5.5m-4.7 2.7L95.7-58v-5.4L100-66M86.3-47.3L81.5-50v-5.3l4.7-2.7 4.6 2.7v5.4m-4.6-24l4.6 2.7v5.4l-4.6 2.7-4.7-2.7v-5.5l4.7-2.7v-5.4l4.6-2.6 4.7 2.6m-4.7 8l4.7-2.6 4.6 2.7m-4.4 8L90.8-66m0 10.7l4.7-2.7m-9.3 0v-5.4m9.3-10.8v-5.4l4.6-2.6 5 2.6v5.4m-23.4 2.7L77-74.2v-5.4l4.5-2.6 4.7 2.6m-4.7-2.6v-5.4l4.7-2.7 4.6 2.7v5.4m-4.6-8v-5.5m18.6 0v5.4l-4.7 2.7-4.4-2.7v-5.4m4.6 13.5v-5.4m-4.5-2.7L91-87.6m18.6 5.4l-4.6 2.6m0-10.7l4.6 2.7m0 37.7l-4.6 3M72.2-1.5v-5.4L77-9.5M67.4 1.3L63-1.4v-5.4l4.5-2.7 4.7 2.7m0-10.7L67.5-15 63-17.4V-23l4.5-2.6 4.7 2.7m-4.7 8v5.6m-14 8v-5.3l4.7-2.7L63-6.8m-14 8l-4.7-2.6v-5.4L49-9.5l4.6 2.7m-9.3-16l4.6-2.8 4.5 2.7v5.6L49-15l-4.7-2.5V-23l-4.7-2.6V-31m14 13.5l4.6 2.6v5.6m-9.3 0V-15m4.5-18.7V-39l4.6-2.8 5 2.8v5.3L58-31l-4.6-2.7zM63-23l-5-2.5V-31m-9 5.4V-31l4.6-2.7M49-31l-4.7-2.7V-39l4.7-3 4.6 2.7M49-42v-5.4l4.6-2.7 4.6 2.7v5.4M77-25.5V-31l4.5-2.7M77-31l-5-2.7V-39l5-3 4.5 2.7M63-33.8l4.5 2.7v5.3M72.2-39l-4.7-3v-5.4l4.7-2.7 4.8 3v5.4M63-39l4.5-2.8m4.7 8L67.5-31m-14 8l4.7-2.6m0 10.7l4.7-2.4M30 1.3l-4.7-2.7v-5.4l4.7-2.7L35-6.8v5.4m-4.7-8V-15l4.7-2.5 4.6 2.6v5.6L35-6.8M16.3-1.4v-5.4L21-9.5l4.6 2.7m4.7-8l-4.7-2.7V-23l4.7-2.6L35-23v5.5m-9.4 0L21-15l-4.7-2.5V-23l4.7-2.6 4.6 2.7M21-15v5.5m-4.7 2.7l-4.6-2.7V-15l4.6-2.5M2.3 1.3l-4.6-2.7v-5.4l4.7-2.7L7-6.8v5.4m0-16L2.4-15l-4.7-2.5V-23l4.7-2.6L7-23v5.5l4.7 2.6m0 5.6L7-6.8M2.4-9.5V-15m9.3-16L7-33.7V-39l4.7-2.8 4.6 2.7v5.2L11.7-31zm4.6 8l-4.6-2.6V-31m-9.3 5.4V-31L7-33.7M7-39l-4.6-3v-5.4L7-50l4.7 2.8v5.4m32.6 8L39.6-31 35-33.7V-39l4.6-2.8 4.7 2.7M21-25.8V-31l4.6-2.7 4.7 2.7v5.4M21-47.2l4.6-2.7 4.7 3v5.3L25.6-39 21-42v-5.4L16.3-50v-5.3L21-58l4.6 2.7m4.7 8L35-50l4.6 3v5.3m-9.3 0L35-39m-9.4 5.3V-39m9.4 5.3L30.3-31m4.7 8l4.6-2.6M21-31l-4.7-2.7m0-5.4l4.7-3M7-23l4.7-2.8M35-55.3L30.3-58v-5.4L35-66l4.6 2.6v5.4L35-55.3v5.4m-9.4 0V-55l4.7-2.7m0-5.3L25.6-66v-5.5l4.7-2.7 4.7 2.7v5.4m-9.4 0L21-63.6 16.3-66v-5.5l4.7-2.7 4.6 2.7m4.7-2.7v-5.4l4.7-2.6 4.6 2.6v5.4L35-71.5m-14 8v5.5M7-50v-5.3l4.7-2.7 4.6 2.7m-14 8L-2.3-50V-55L2.4-58 7-55.3m-4.6-8L-2.3-66v-5.6l4.7-2.7L7-71.5v5.4l-4.6 2.5zm14-8.2l-4.7-2.7v-5.4l4.6-2.6 4.7 2.6v5.4M11.7-58v-5.4l4.6-2.7m-14 8v-5.5M7-66l4.7 2.6m0-10.8L7-71.5m-4.6-2.7v-5.4L7-82.2l4.7 2.6m0-16v5.3L7-87.6l-4.6-2.7v-5.4m18.6 0v5.4l-4.7 2.7-4.6-2.7M7-87.6v5.4m9.3-5.4v5.4m4.7-8l4.6 2.6v5.4L21-79.6m9.3 0l-4.7-2.6m4.7-13.5v5.4l-4.7 2.7m23.3-8v5.3L44-87.6l-4.7-2.7v-5.4M35-82.2v-5.4l4.6-2.7m-9.3 0l4.7 2.7M72.2-50v-5.3L77-58l4.5 2.7m-14 8L63-49.8V-55l4.5-2.8 4.7 2.7m-4.7-19l4.7 2.7v5.4l-4.7 2.7L63-66v-5.5l4.5-2.7v-5.4l4.7-2.6 4.7 2.6M81.3-66L77-63.5 72-66m0-5.5l4.7-2.7m0 10.8v5.4m-9.5 0v-5.4M53.5-50v-5.3l4.7-2.7 4.7 2.7m-14 8L44-50V-55L49-58l4.6 2.7M44.3-66v-5.5l4.6-2.7 4.5 2.7v5.4L49-63.6 44.2-66l-4.7 2.6M63-66l-5 2.5-4.4-2.5m0-5.5l4.6-2.7 4.7 2.7M58-58v-5.4M49-58v-5.4m0-10.8v-5.4l4.6-2.6 4.6 2.6v5.4M49-79.6l-4.7-2.6v-5.4m14-8v5.3l-4.7 2.7-4.7-2.7m4.5 2.7v5.4m4.6 2.6l4.8-2.6 4.5 2.6M63-82.2v-5.4l4.5-2.7 4.7 2.7v5.4m-4.7-8v-5.5m9.4 0v5.4l-5 2.7m-14-2.7l4.7 2.7M44-17.6L39.3-15m0 5.6L44-6.7M39.3-74l4.7 2.6M39.6-58l4.7 2.7m0 5.4l-4.7 3M63-50l-5 3m-42-2.7L11.8-47m32.6-35l-4.7 2.6m37.3-11l4.5 2.8m0 37.7L77-47m9 48.3l-4.7-2.7M44-1.4l-4.6 2.7M63-1.4l-5 2.7m51.2-2.7l-4.6 2.7m-79-2.7L21 1.3M-95.4 95.7v-5.4l4.7-2.7 4.6 2.7v5.4m0-5.4l4.5-2.7 4.7 2.7v5.4m-28 0v-5.4l4.7-2.7 4.5 2.7m-4.6-8l-4.8-2.8V74l4.7-2.6 4.5 2.7v5.6l-4.6 2.7zm4.5-8.2l4.7-2.5L-86 74v5.5l-4.7 2.7-4.7-2.7M-86 74l4.6-2.6 4.7 2.7v5.6l-4.7 2.7-4.7-2.7m-14 8v-5.3m9.2 5.4v-5.4m9.3 5.4v-5.4m-28 5.4l4.7 2.7m0-10.8l-4.6 2.7m0-27l4.6 2.7v5.3l-4.6 2.7m0 5.4l4.6 2.7m14-8l-4.7-2.6V58l4.7-2.8L-86 58v5.3l-4.7 2.7v5.4M-86 58l4.6-2.8 4.7 2.7V63l-4.7 2.7L-86 63m4.5 8V66m-18.6 5.4V66l4.5-2.7m0-5.4l-4.5-3v-5.4l4.6-2.6 4.7 2.6V55m9.3 0v-5.4l4.7-2.6 4.6 2.6V55l-4.8 2.7m-23.3 8L-105 63m0-5.4l4.7-2.8m14-13.4l-4.8-2.7v-5.3L-86 31l4.6 2.7V39l-4.6 3zm4.5 8l-4.7-2.6v-5.4m-14 8l-4.7-2.6v-5.4l4.8-2.7 4.6 2.8V47m0-16.3l-4.6 2.7-4.7-2.7v-5.4l4.8-2.7 4.6 2.6V31l4.7 2.7m5-2.7v-5.4l4.6-2.7 4.7 2.5V31l-4.7 2.7M-100 39v-5.3m9.3 5.4l-4.7 3m-14-2.8l4.7 2.8m0-10.8l-4.6 2.7m0-27l4.6 2.6V15l-4.6 2.7M-86 15V9.4l4.5-2.7 4.7 2.7v5.4l-4.7 2.7-4.7-2.7zm4.5 8v-5.3m-4.7 8L-91 23v-5.4l4.7-2.7m-14 8v-5.4l4.6-2.7 4.7 2.6m-9-11V1.4l4.6-2.7 4.7 2.7v5.4l-4.7 2.7-4.6-2.7zm18.6 0V1.4l4.7-2.7 4.6 2.7v5.4L-77 9.4m-14-2.7l4.6 2.7m-9.4 5.4V9.4m0 16.2L-91 23m-9.2-5.6l-4.7-2.7m0-5.4l4.8-2.7m-9.3 16.2l4.6 2.6m19 21.8l-4.7 2.6m-14-2.6l-4.6 2.6m97.7 46v-5.5l4.7-2.7 4.8 2.7M-21 95.7v-5.4l4.8-2.7 4.6 2.7m-4.6-8l-4.7-2.8V74l5-2.6 4.5 2.7v5.6l-4.6 2.7v5.4m14-8L-7 82l-4.6-2.7M-7 82v5.4m-23 8V90l4.6-2.6 4.6 2.7m-18.5 5.5V90l4.7-2.6L-30 90m-9.3-10.7V74l4.7-2.6L-30 74v5.6l-4.6 2.7-4.7-2.7-4.7 2.7-4.6-2.7m28 0l-4.7 2.7-4.7-2.7m-4.6 8v-5.3m9.3 5.4v-5.4m4.6-8l-4.5-2.8V66l4.6-2.7L-16 66v5.4M-30 74l4.7-2.5m0-5.4l-4.7-2.6V58l4.7-2.8L-21 58v5.3M-39.4 74l-4.7-2.6V66l4.6-2.7 4.7 2.7v5.4M-30 58l-4.7-3v-5.3L-30 47l4.6 2.7V55m-14 8v-5l4.7-2.8m4.6 8l-4.7 2.8m23.2 8l4.7-2.6L-2 74m-5-8l-4.6-2.7V58l4.6-3 4.7 2.7V63L-7 66v5.4m-9-5.4l4.6-2.7m0-5.4l-4.6-3v-5.3l4.6-2.6 4.7 2.7V55m-9.2 0l-5 3m-27.8 37.7v-5.4l4.6-2.7 4.7 2.7M-58 95.7v-5.4l4.5-2.7 4.7 2.7M-58 79.5V74l4.5-2.6 4.7 2.7v5.6l-4.7 2.7-4.6-2.7-5 2.7-4.5-2.7m23.2 8v-5.3m-9.3 5.4v-5.4m-14 13.5v-5.4l4.7-2.7 4.8 2.7m-18.7 0l4.7-2.7 4.6 2.7m-9-16.4l4.6-2.6 4.5 2.7v5.6l-4.7 2.7-4.7-2.7m14 8v-5.3m-9.3 5.4v-5.4m4.6-8l4.6-2.8 5 2.5m-4.8-2.6V66l4.7-2.7 4.4 2.7v5.4M-63 66l-4.5-2.7V58l4.6-2.8 5 2.8v5.3m-18.7 0L-72 66v5.4m9.2-16.2v-5.4l4.7-2.6 4.4 2.6v5.4L-58 58m-9.4 5.3L-72 66m0-10.8l4.6 2.7m18.6 16l4.6-2.7m0-5.4l-4.6-2.8V58l4.6-2.8 4.7 2.7m-14-8.3l4.7-2.6 4.6 2.7V55m-9.3 11l4.7-2.7m-4.7-8l4.7 2.6m0-11v-5.3l4.6-2.7 4.7 2.8v5.4l-4.7 2.6m-14-2.6v-5.4l4.7-2.7 4.7 3M-58 25.5l4.5-2.7 4.7 2.5V31l-4.7 2.7L-58 31v-5.4l-5-2.6v-5.5m14 8l4.6-2.6 4.7 2.5V31l-4.7 2.7L-49 31m4.6 8v-5.3m-9.3 5.4V34m-9.3 16l-4.6-2.5V42L-63 39l5 2.8m-18.7 5.4V42l4.7-3 4.6 2.8m-9.3-16.2L-72 23l4.6 2.6V31l-4.7 2.7L-77 31m18.6 0l-4.8 2.7-4.6-2.7m-4.7 8v-5.3M-63 39v-5.3m-4.6-19V9.5l4.6-2.7 4.7 2.7V15l-4.8 2.6-4.7-2.7-4.7 2.6L-77 15m4.5 8v-5.4m9.5-11V1.4l4.7-2.7 4.5 2.7v5.4L-58 9.4m-14-2.7l4.6 2.7M-44.2 23v-5.5l4.7-2.7 4.7 2.7V23l-4.7 2.6m-4.7-8l-4.6-2.8V9.4l4.6-2.7 4.7 2.7v5.4m-9.3 0l-4.7 2.7-4.6-2.7m4.4 8v-5.3m9.3-10.8V1.3l4.7-2.7 4.7 2.7v5.4l-4.6 2.7m-14-2.7l4.7 2.7m-18.5 16.2L-63 23m51.4 24v-5.4L-7 39l4.7 2.8m-9.3 0l-4.6-2.7V34l4.6-2.7L-7 34V39m-9-5.3l-5-2.7v-5.4l5-2.6 4.6 2.6V31m9.3 0l-5 2.7m-23 13.5v-5.4l4.7-2.7 4.3 3v5.4l-4.5 2.6m-14-8l4.7-2.7 4.6 2.8m-4.6-19l4.6 3v5l-4.6 2.7-4.7-2.7m18.6 0l-4.4 2.7L-30 31m-4.7 8v-5.3m9.3 5.4V34m4.6-8l-4.5-2.8v-5.5l4.6-2.7 4.8 2.7V23m-9.2-5.5l-4.7-2.7V9.4l4.8-2.7 4.6 2.7v5.4m-4.5-8V1.2l4.5-2.7 4.8 2.7v5.4L-21 9.4m-9.2 5.4l-4.6 2.7m0-10.8l4.6 2.7m23.3 8l-4.5-2.6V9.4L-7 6.7l4.7 2.7v5.4L-7 17.5V23l-4.6 2.6m0-10.8l-4.6 2.7m0-10.8l4.6 2.7m-4.6-8l4.6-2.8L-7 1.3v5.4M-7 23l4.7 2.6m-28 0l4.8-2.7m9.3 16l-4.8 3m-46.4 5.4L-72 50m69.6-2.6L-7 49.8m-27.8 0l-4.7-2.6m23.3 2.6l-4.7-2.6m-60.3-8l4.7 2.6m65-43.2v-5.4l4.8-2.7L-2-6.8m-9.4 0L-16-9.5V-15l4.6-2.5L-7-15v5.5m-9-5.5l-4.7-2.5V-23l4.8-2.6 4.7 2.7v5.6m9.3 0L-7-15M-21-1.3v-5.4l4.8-2.7M-21-6.8l-4.5-2.7V-15l4.6-2.5m-4.4 8L-30-6.8l-4.7-2.7V-15l4.6-2.5 4.6 2.6M-30-6.6v5.4l-4.7 2.7m-4.7-2.7v-5.4l4.7-2.7m0-5.4l-4.7-2.5V-23l4.7-2.6L-30-23v5.6m0-16.2V-39l4.6-2.8L-21-39v5.3l-4.5 2.7-4.7-2.7-4.6 2.7-4.7-2.7V-39l4.7-2.8 4.6 2.7m9.3 16l-4.4-2.7V-31m-9.3 5.4V-31m-4.7-8l-4.7-2.8v-5.4l4.6-2.7 4.7 3v5.3m9.3 0V-47l4.4-3 5 3v5.4l-5 2.6m14 8l-4.6-2.7V-39l4.6-3 4.7 2.7v5.3L-7-31v5.4l-4.6 2.7m-4.6-2.5V-31l4.6-2.7m-4.6-8l4.6 2.6m-4.6-8.3l4.6-2.7 4.6 3v5.4m-23.2 19l4.7-2.8m9.3-5.4l-4.7-2.7m14 8l4.8 2.8m-42 24.3L-48.7-1v-5.5l4.6-2.7 4.6 2.7m-18.6 5v-5.3l4.5-2.7 4.7 2.7m-9.3 0l-5-2.7V-15l4.7-2.5 4.5 2.6v5.6m-9.3-5.4l-4.7-2.5V-23l4.6-2.6 5 2.6v5.5m18.5 0l-4.7 2.6-4.6-2.4V-23l4.6-2.6 4.7 2.7m-4.7 13.6V-15m-9.3 0l4.7-2.5m-14 18.8l-4.6-2.7v-5.4l4.6-2.7m-14 2.7l-4.6-2.7V-15l4.7-2.5L-72-15v5.5l-4.7 2.7v5.4m0-16V-23l4.6-2.6 4.5 2.7m0 5.6L-72-15m0 5.5l4.6 2.7m0-27V-39l4.6-2.8L-58-39v5.3l-5 2.7-4.6-2.7zm4.6 8.2V-31m-9.3 5.4V-31l4.5-2.7M-72-31l-4.7-2.7V-39l4.7-3 4.6 2.7m-9.3 0l-4.7-2.8v-5.5l4.7-2.7L-72-47v5.4m9.2 0V-47l4.8-3 4.5 2.8v5.4L-58-39m13.8 13.4V-31l4.7-2.7m-4.7 2.7l-4.6-2.7V-39l4.6-2.8m-4.6 8l-4.7 2.8-4.6-2.7m9 10.7l-4.7-2.6V-31m0-10.8L-49-39m-9 16l4.5-2.6M-58-50v-5.3l4.5-2.7 4.7 2.7v5.4l-4.7 3m4.7-8l4.6-3 4.7 2.8v5.4M-58-71.4l4.5-2.7 4.7 2.6v5.4l-4.7 2.6L-58-66v-5.5zm9.2 0l4.6-2.7 4.7 2.6v5.4l-4.7 2.6-4.6-2.7m4.6 8v-5.5m-9.3 5.4v-5.5M-76.7-50v-5.3L-72-58l4.6 2.7v5.4l-4.6 3m4.6-8l4.6-2.8L-58-55M-77-55l-4.7-2.8v-5.4l4.7-2.7 4.6 2.7v5.4m-9.4-5.3L-86-66v-5.5l4.6-2.7 4.7 2.7v5.4m-4.7-8.3v-5.4l4.7-2.6 4.6 2.6v5.4l-4.8 2.7M-58-66l-4.8 2.6-4.6-2.7v-5.6l4.6-2.7 4.7 2.7M-63-58v-5.4m-9-10.8l4.6 2.7m0 5.4l-4.7 2.5m4.5-18.8v-5.4l4.6-2.7 4.8 2.7v5.4l-4.8 2.6-4.6-2.6-4.7 2.6m-4.7-2.6v-5.4l4.6-2.7 4.6 2.7m-4.7-2.7v-5.4m9.2 5.4v-5.4m9.3 21.5v-5.4l4.7-2.6 4.6 2.6v5.4m-14-8l4.7 2.6m-4.6-8l4.5-2.7 4.6 2.7v5.4m-4.7-8v-5.5m9.2 0v5.4l-4.6 2.7m-14 13.4v-5.4M-11.6-50v-5.3L-7-58l4.7 2.7M-21-50v-5.3l5-2.7 4.6 2.7m-4.6-8l-4.7-2.8v-5.6l4.8-2.7 4.7 2.7v5.4l-4.6 2.6v5.4m14-8l-5 2.7-4.6-2.7m0-5.5l4.7-2.7 4.8 2.7m-4.6 8v5.5m-18.5 10.8L-30-50v-5.4l4.7-2.7 4.6 2.6m-18.5 0l4.7-2.7 4.6 2.6M-39-71.6l4.7-2.7 4.6 2.7v5.4l-4.5 2.6-4.7-2.7m18.6-5.5l-4.5-2.7V-80l4.5-2.5 4.8 2.6v5.5m-4.7 8l-4.5 2.8-4.6-2.7m4.7-8.2l-4.6 2.7m-4.6 8v5.6m9.3 0v-5.4M-34-74.6V-80l4.6-2.6L-25-80m-18.6 0l4.7-2.6L-34-80m-4.7-2.6V-88l4.8-2.7 4.6 2.7v5.4m-4.6-8V-96m18.6 0v5.3l-4.7 2.7-4.5-2.7V-96m0 5.3l-4.7 2.7m9.3 5.4V-88m14 8l-4.6-2.6V-88l4.7-2.7 4.6 2.7v5.4l-5.6 3v5.4m-9.2-5.4l4.6-2.6m0-5.4l-4.6-2.7m9.3-5.4v5.4m-37 0l4.6 2.7m-23.3 40.4l-4.6-2.7m23.2 3l-4.7-2.8m18.6 0l-4.7 2.8m32.4-3L-7-47M-95.3-1.4v-5.4l4.7-2.7 4.6 2.7v5.4l-4.7 2.7m4.6-8l4.5-2.8M-100 1.3l-4.7-2.7v-5.4l4.7-2.7 4.6 2.7m0-10.7L-100-15l-4.7-2.5V-23l4.7-2.6 4.6 2.7v5.6zm0-5.4l4.7-2.5L-86-23v5.5l-4.7 2.6-4.7-2.4m14 2.6l-4.7-2.5m-14 8V-15m9.2 0v5.5m-18.6 0l4.6 2.7m0-10.7l-4.6 2.6m0-26.7l4.6 2.7v5.3l-4.6 2.7m18.6 5.4V-31l4.6-2.7 4.6 2.7v5.4L-86-23m-14-2.6V-31l4.6-2.7 4.7 2.7m-9.3-16.2l4.6-2.7 4.7 3v5.3l-4.7 2.7-4.6-2.8v-5.4l-4.7-2.7m14 8.3L-86-39v5.3m0-5.4l4.6-3m-14 8v-5m-14 13.4l4.7 2.7m4.7-8l-4.7-2.6m0-5.4l4.7-2.8m4.6-8v-5.5l4.7-2.7 4.6 2.7v5.4l-4.8 3m4.6-8l4.6-3m-14 2.8L-100-58v-5.4l4.6-2.7 4.7 2.5v5.4m-9.3-5.5l-4.7-2.7v-5.5l4.7-2.7 4.6 2.7v5.4m0-5.5l4.7-2.7 4.6 2.7m0 5.4l-4.8 2.6m-18.6 5.4l4.6 2.7v5.4l-4.6 2.8m0-27l4.6 2.7m0 5.4l-4.6 2.6m0-27l4.6 2.8v5.4l-4.6 2.6m28 0l-4.8-2.6V-88l4.6-2.7L-77-88m-9.3 5.4L-91-80l-4.7-2.6V-88l4.7-2.7 4.6 2.7m-14 13.4V-80l4.6-2.6m0-5.4l-4.6-2.7V-96m18.6 0v5.3M-91-96v5.3m0 10.7v5.4m-14 19l4.6-2.8m0-21.6l-4.7-2.6m0-5.4l4.6-2.7m18.6 43l-4.7-2.6m9.3 16.3l-4.7 2.7m0 5.4L-77-23M-68-1.6l-4 3m-32.7-2.8l-4.6 2.7m28 0L-86-1.4m60.4 2.7l-4.7-2.7m-23.3 2.7l4.7-2.7m46.6 0L-7 1.3M-2.2 58l4.6-3m0 10.8L-2.3 63m0-102.3L2.4-42m0 10.8L-2.3-34m4.7-46l-4.7-2m0-5.4L2.4-90M-2.3 9.3l4.7-2.7m0 10.8l-4.7-2.7" stroke-linecap="square"/></symbol><path fill="#efeeee" fill-rule="evenodd" d="M217.5 109c0 29.8-10.5 55.3-31.6 76.7l-2.6 2.3c-3.4 3.3-7 6.4-11 9.2-18.2 13.5-39.3 20.2-63.3 20.2s-45-6.7-63-20.2c-5-3.4-9.4-7.2-13.6-11.5C16.2 169.3 6 150.4 2.4 129c-.7-4.3-1.2-8.5-1.5-13-.3-2.3-.3-4.7-.3-7v-7.3l.3-.7c1.7-26.6 12.2-49.6 31.5-69C54 11 79.5.5 109.3.5 139.3.5 164.7 11 186 32c21 21.5 31.4 47 31.4 77"/><path fill="#010101" fill-rule="evenodd" d="M195.4 43L173 65.4c-8.8 13-13.2 28-13.2 44.6 0 18 5 33.8 15.2 47.7l19 19c-2.5 3-5.2 6-8 9l-2.5 2.2c-2.5 2.3-5 4.7-8 7L158 177c-13.7-10.7-30-16-48.4-16-18 0-33.8 5-47.7 15.2L43 195c-3.7-2.7-7.3-6-10.7-9.4-2.8-2.8-5.4-5.6-7.8-8.6l19-19.2C54 143.8 59 127.8 59 110c0-17.5-5-33-14.7-46.6l-21-21c2.8-3.6 6-7 9.2-10.4 3-2.8 6-5.5 9-8L62 44.3c13.7 10.3 29.6 15.4 47.5 15.4 18.5 0 34.7-5.4 48.6-16l19.5-19.4c3 2.4 5.7 5 8.5 7.7 3.4 3.6 6.5 7.2 9.4 11"/><g clip-path="url(#b)"><use width="228.6" height="197.2" x="-114.3" y="-98.6" xlink:href="#c" transform="matrix(1.1415 0 0-1.1415 105.5 107.75)"/></g><g fill-rule="evenodd"><path fill="#35c6f4" d="M79 111v-4.2c.6-7.4 3.5-13.8 8.8-19 6-6 13-9 21.3-9 8.5 0 15.6 3 21.4 9 6 5.8 8.8 13 8.8 21.2s-2.8 15.3-8.7 21.2c0 .2-.4.5-.6.6-1 1-2 1.8-3 2.6-5 3.7-11 5.6-17.7 5.6-6.5 0-12.4-2-17.4-5.6-1.4-1-2.7-2-4-3.2-4.4-4.5-7.2-9.7-8.2-15.7L79 111m47 16.2l3.7 3.6-3.6-3.6"/><g fill="none" stroke="#35c6f4" stroke-miterlimit="1"><path stroke-width="2" d="M158.6 60.3l-15 14.6m-112-42l41 41m53.6 53.5l3.7 3.6m27.3 27l27.7 28.7M153 154l-10.7-11.3M186.6 33l-28 27.3M33 186.3l27.5-27.5"/><path stroke-width="7" d="M158.6 60.3l-17 17.2m-82.2-16l17.2 17m-16 80.3L77 141.5m76 12.5l4 4m-17.6-17.6L153 154"/></g></g></svg>